<?xml version="1.0" encoding="utf-8"?>
<!-- Generator: Adobe Illustrator 23.1.1, SVG Export Plug-In . SVG Version: 6.00 Build 0)  -->
<svg version="1.1" xmlns="http://www.w3.org/2000/svg" xmlns:xlink="http://www.w3.org/1999/xlink" x="0px" y="0px"
	 viewBox="0 0 155 87" style="enable-background:new 0 0 155 87;" xml:space="preserve">
<style type="text/css">
	.st0{fill:none;}
	.st1{display:none;}
	.st2{display:inline;}
	.st3{fill:#B1B1B1;}
	.st4{display:inline;fill:#B1B1B1;}
</style>
<g id="Capa_1">
	<g>
		<rect x="0" y="0" class="st0" width="155" height="87"/>
	</g>
</g>
<g id="Capa_2">
	<g class="st1">
		<g id="Capa_1-2" class="st2">
			<g id="JRmRBH">
				<path class="st3" d="M41.71,60.221c-1.029-0.083-2.053-0.22-3.067-0.411c-1.085-0.195-1.806-1.233-1.611-2.318
					c0.006-0.033,0.013-0.067,0.021-0.1c0.103-0.549,0.24-1.091,0.411-1.623c0.548-1.828,0.626-3.765,0.227-5.631
					c-0.335-1.45-0.536-2.927-0.6-4.414c0.024-2.024,0.16-4.044,0.406-6.053c0.216-2.515,1.304-4.739,1.796-7.14
					c0.292-1.444,0.746-2.845,0.308-4.387c-0.195-0.671,0.124-1.509,0.265-2.239c0.032-0.146,0.4-0.303,0.622-0.314
					c0.774-0.038,1.552-0.038,2.326-0.038c1.022,0.027,0.887,0.07,1.082,1.206c0.168,0.882-0.054,1.699,0,2.537
					c0.054,1.023,0.194,2.04,0.417,3.04c0.222,1.055,0.529,2.09,0.92,3.094c0.795,1.985,0.968,4.073,1.136,6.167
					c0.103,1.304,0.238,2.613,0.222,3.922c-0.073,0.924-0.198,1.843-0.373,2.753c-0.168,1.266-0.325,2.537-0.449,3.814
					c-0.157,1.623,0.389,3.143,0.682,4.701c0.043,0.254,0.173,0.492,0.2,0.741c0.212,1.045-0.463,2.065-1.508,2.277
					c-0.02,0.004-0.04,0.008-0.061,0.011C43.964,60.009,42.84,60.144,41.71,60.221z"/>
				<path class="st3" d="M117.755,42.37c0.882,0.087,0.914,0.108,0.541,0.611c-1.594,2.161-3.423,4.138-5.453,5.896
					c-1.179,0.995-2.445,1.888-3.635,2.872c-0.351,0.293-0.628,0.663-0.811,1.082c-0.411,1.001-0.736,2.029-1.082,3.051
					c-0.059,0.198-0.079,0.406-0.06,0.611c0,0.541,0.362,0.757,0.795,0.46c0.377-0.26,0.713-0.576,0.995-0.936
					c0.844-1.082,1.704-2.202,2.45-3.375c1.031-1.551,2.285-2.942,3.722-4.127c0.668-0.472,1.396-0.854,2.164-1.136
					c0.187-0.094,0.406-0.104,0.6-0.027c1.082,0.779,2.261,0.173,3.392,0.27c0.746,0.065,0.822,0.173,0.444,0.795
					c-1.304,2.164-2.624,4.328-3.916,6.491c-0.357,0.606-0.644,1.255-1.022,2.001c1.158-0.135,1.688-0.925,2.277-1.59
					c0.444-0.498,0.774-1.082,1.185-1.623c0.162-0.191,0.366-0.342,0.595-0.444c0.146-0.038,0.3-0.003,0.417,0.092
					c0.082,0.113,0.101,0.26,0.049,0.389c-1.385,2.072-2.91,4.025-5.069,5.35c-1.314,0.811-2.115,0.476-2.705-1.044
					c-0.541,0.357-1.082,0.752-1.623,1.082c-1.379,0.725-2.029,0.503-2.743-0.855c-0.092-0.184-0.189-0.362-0.281-0.541
					c-0.627,0.46-1.223,0.952-1.866,1.352c-0.644,0.4-1.461,0.709-2.164,0.092c-0.652-0.533-0.919-1.406-0.676-2.212
					c0.292-1.082,0.541-2.164,0.871-3.246c0.124-0.417-0.065-0.406-0.346-0.433c-0.665-0.06-0.866,0.433-1.12,0.887
					c-1.036,1.855-2.503,3.432-4.279,4.598c-0.466,0.318-0.984,0.552-1.531,0.692c-0.902,0.245-1.833-0.288-2.078-1.19
					c-0.038-0.141-0.058-0.286-0.059-0.432c-0.017-0.82,0.102-1.637,0.352-2.418c0.995-2.878,3.008-5.025,5.28-6.946
					c0.544-0.397,1.146-0.708,1.785-0.92c1.547-0.617,2.705,0.27,2.505,1.942c-0.151,0.755-0.357,1.498-0.617,2.223
					c-0.038,0.178-0.065,0.359-0.081,0.541c0.238-0.038,0.584,0,0.698-0.13c0.382-0.483,0.719-1.001,1.006-1.547
					c1.112-2.219,2.427-4.33,3.927-6.307c2.202-2.813,4.582-5.453,7.573-7.443c0.515-0.334,1.076-0.591,1.666-0.763
					c1.082-0.33,1.861,0.379,1.623,1.466c-0.158,0.592-0.353,1.174-0.584,1.742l-0.438,0.097l0.114,0.151l0.319-0.26
					c1.428-0.157,2.58-0.936,3.716-1.715c0.683-0.541,1.407-1.029,2.164-1.461c-0.319,0.476-0.606,0.985-0.968,1.433
					c-1.65,2.034-3.608,3.646-6.178,4.387c-0.611,0.179-1.233,0.319-1.85,0.476l-2.239-0.368c0.503-0.541,0.887-0.887,1.195-1.287
					c0.467-0.632,1.237-0.966,2.018-0.876c0.914,0.049,0.925,0,1.228-1.022c0.157-0.541,0.298-1.049,0.444-1.574
					c-0.757-0.081-1.136,0.541-1.661,0.887c-0.082,0.063-0.158,0.134-0.227,0.211c-3.488,3.299-6.372,7.184-8.52,11.479
					c-0.046,0.015-0.09,0.037-0.13,0.065c0,0,0,0.065-0.027,0.097l0.141-0.179c0.282-0.088,0.553-0.209,0.806-0.362
					C113.35,47.355,115.691,44.979,117.755,42.37z M118.745,49.056c-0.638-0.257-1.369-0.056-1.785,0.492
					c-1.648,1.551-2.987,3.402-3.943,5.453c-0.265,0.579-0.952,1.352-0.319,1.785c0.774,0.541,1.282-0.46,1.623-0.974
					C115.84,53.627,117.247,51.371,118.745,49.056z M101.165,51.517c-0.443,0.568-0.851,1.162-1.223,1.78
					c-0.43,0.818-0.792,1.67-1.082,2.548c-0.058,0.341,0.051,0.688,0.292,0.936c0.317,0.116,0.668,0.089,0.963-0.076
					c1.352-0.682,1.98-2.039,2.835-3.181c0.076-0.103-0.043-0.454-0.179-0.584C102.279,52.437,101.722,51.983,101.165,51.517z
					 M104.838,49.754c-0.13-0.746-0.541-1.304-0.93-1.082c-0.615,0.335-1.146,0.805-1.552,1.374
					c-0.368,0.541,0.032,1.185,0.444,1.661c0.203,0.313,0.622,0.402,0.935,0.199c0.096-0.062,0.174-0.147,0.228-0.248
					c0.332-0.62,0.624-1.259,0.876-1.915V49.754z"/>
				<path class="st3" d="M76.931,52.21c-0.591,0.394-1.203,0.755-1.834,1.082c-0.42,0.186-0.877,0.276-1.336,0.265
					c-0.698,0.039-1.295-0.496-1.334-1.194c-0.003-0.06-0.002-0.12,0.003-0.18c0.047-0.474,0.128-0.944,0.243-1.406
					c-0.508,0.465-0.882,0.833-1.287,1.174c-0.945,0.883-2.131,1.467-3.408,1.677c-1.319,0.166-2.523-0.768-2.689-2.087
					c-0.007-0.058-0.012-0.116-0.016-0.174c-0.092-1.358,0.492-2.499,1.082-3.657c0.05-0.176,0.07-0.359,0.06-0.541
					c-0.222,0.065-0.541,0.06-0.644,0.206c-0.687,0.898-1.314,1.845-1.991,2.753c-0.997,1.392-2.342,2.498-3.9,3.208
					c-1.212,0.541-2.396,0.287-2.764-0.779c-0.219-0.787-0.219-1.62,0-2.407c0.513-1.903,1.504-3.644,2.878-5.058
					c0.926-0.973,1.922-1.877,2.981-2.705c0.499-0.34,1.051-0.594,1.634-0.752c0.952-0.402,2.05,0.043,2.453,0.995
					c0.162,0.383,0.192,0.81,0.084,1.212c-0.13,0.496-0.285,0.986-0.465,1.466c-0.075,0.173,0.004,0.373,0.176,0.449
					c0.111,0.049,0.24,0.034,0.338-0.038c0.595-0.406,1.185-0.822,1.742-1.271c0.763-0.617,1.45-1.331,2.25-1.888
					c0.624-0.447,1.316-0.791,2.05-1.017c0.968-0.289,1.986,0.261,2.275,1.229c0.08,0.268,0.097,0.551,0.051,0.827
					c-0.172,0.983-0.765,1.843-1.623,2.353c-0.266,0.127-0.578,0.115-0.833-0.032c-0.224-0.196-0.339-0.488-0.308-0.784
					c0.132-0.73,0.656-1.328,1.363-1.552c0.141-0.038,0.238-0.249,0.357-0.379c-0.184-0.065-0.4-0.227-0.541-0.184
					c-0.448,0.097-0.872,0.281-1.25,0.541c-1.968,1.69-3.425,3.895-4.209,6.367c-0.023,0.047-0.041,0.096-0.054,0.146
					c-0.038,0.508-0.206,1.082,0.314,1.428c0.51,0.307,1.156,0.266,1.623-0.103c1.359-0.945,2.565-2.092,3.576-3.403
					c1.293-1.536,2.499-3.148,3.884-4.598c0.774-0.669,1.635-1.232,2.559-1.672c0.521-0.381,1.233-0.366,1.736,0.038
					c0.541,0.417,0.968-0.168,1.471-0.038s1.195-0.049,1.455,0.233c0.449,0.481-0.243,0.893-0.487,1.304
					c-1.347,2.229-2.678,4.43-4.014,6.632c-0.135,0.162-0.243,0.344-0.319,0.541c0.001,0.186,0.037,0.369,0.108,0.541
					c0.141-0.038,0.33,0,0.422-0.114c0.887-0.871,1.753-1.758,2.634-2.634c0.187-0.224,0.408-0.418,0.655-0.573
					c0.141-0.07,0.384,0.054,0.579,0.092c-0.022,0.138-0.066,0.271-0.13,0.395c-1.352,1.823-2.705,3.624-4.652,4.912
					c-0.256,0.176-0.532,0.321-0.822,0.433C77.856,53.898,77.277,53.535,76.931,52.21z M82.048,43.138
					c-0.633-0.243-1.349-0.019-1.731,0.541c-1.691,1.726-3.096,3.711-4.16,5.88c-0.154,0.321-0.257,0.664-0.303,1.017
					c-0.041,0.245,0.125,0.476,0.369,0.517c0.124,0.021,0.251-0.012,0.35-0.089c0.468-0.317,0.879-0.71,1.217-1.163
					C79.213,47.633,80.604,45.416,82.048,43.138z M60.178,50.257c0.038,0.103,0.076,0.541,0.254,0.606
					c0.309,0.13,0.66,0.11,0.952-0.054c0.813-0.692,1.582-1.432,2.304-2.218c0.404-0.371,0.677-0.862,0.779-1.401
					c0-0.308-0.719-0.611-1.114-0.92c-0.122-0.094-0.232-0.201-0.33-0.319c-0.308-0.406-0.541-0.357-0.795,0.065
					c-0.179,0.303-0.422,0.573-0.622,0.871C60.879,47.887,60.391,49.04,60.178,50.257z M65.955,44.031
					c-0.013-0.288-0.062-0.573-0.146-0.849c-0.085-0.174-0.244-0.299-0.433-0.341c-1.141-0.032-2.099,1.374-1.552,2.38
					c0.308,0.382,0.734,0.652,1.212,0.768c0.114,0.038,0.492-0.444,0.617-0.741C65.789,44.852,65.89,44.445,65.955,44.031z"/>
				<path class="st3" d="M102.241,37.101c-0.822,0.27-1.736,0.389-2.445,0.833c-2.418,1.591-4.561,3.564-6.345,5.842
					c-1.516,1.756-2.79,3.709-3.787,5.804c-0.649,1.444-1.082,2.981-1.623,4.484c-0.058,0.252-0.084,0.51-0.076,0.768
					c-0.065,0.936,0.146,1.807,0.985,2.294c0.82,0.491,1.861,0.406,2.591-0.211c0.99-0.732,1.897-1.57,2.705-2.499
					c0.699-0.95,1.282-1.979,1.736-3.067c0.21-0.515,0.318-1.066,0.319-1.623c0.032-0.779-0.541-1.082-1.212-0.633
					c-0.851,0.607-1.469,1.487-1.753,2.494c-0.187,0.639-0.624,1.176-1.212,1.488c-0.822,0.508-1.558,1.147-2.505,1.861
					c0.444-3.029,1.52-5.458,4.111-6.984c0.49-0.268,1.023-0.451,1.574-0.541c0.92-0.15,1.787,0.475,1.937,1.395
					c0.007,0.043,0.012,0.087,0.016,0.131c0.076,0.725,0.023,1.457-0.157,2.164c-0.863,3.004-2.784,5.595-5.409,7.292
					c-1.032,0.691-2.228,1.096-3.467,1.174c-2.045,0.114-3.657-1.942-3.754-3.57c-0.108-2.329,0.455-4.641,1.623-6.659
					c1.671-3.223,3.87-6.143,6.507-8.639c2.261-2.05,4.685-3.879,7.719-4.668c1.082-0.276,2.104-0.417,3.132,0.189
					c0.268,0.103,0.565,0.103,0.833,0c2.18-0.736,4.57-0.497,6.562,0.655c1.114,0.644,2.256,1.244,3.375,1.872
					c0.325,0.179,0.411,0.379,0.13,0.719c-1.531,1.828-1.504,1.807-3.565,0.487c-1.174-0.746-2.396-1.406-3.613-2.077
					c-0.357-0.207-0.75-0.347-1.158-0.411c-0.45-0.104-0.92-0.074-1.352,0.087c-0.227,0.124-0.173,0.73-0.265,1.114
					c-0.54,2.438-1.916,4.61-3.889,6.14c-0.459,0.336-0.985,0.569-1.542,0.682c-0.695,0.221-1.437-0.163-1.658-0.857
					c-0.059-0.184-0.076-0.379-0.051-0.571c0.021-0.459,0.122-0.911,0.298-1.336c0.79-2.11,2.321-3.624,4.041-4.987
					c0.222-0.198,0.433-0.408,0.633-0.627c0.047-0.006,0.093-0.021,0.135-0.043c0,0,0-0.065,0.038-0.097L102.241,37.101z
					 M103.491,37.734c-2.032,1.025-3.707,2.641-4.804,4.636c-0.247,0.447-0.406,0.938-0.471,1.444
					c-0.087,0.59,0.303,0.871,0.866,0.676c0.233-0.103,0.453-0.233,0.655-0.389C101.96,42.641,102.971,40.471,103.491,37.734z"/>
				<path class="st3" d="M82.172,59.772c-0.352-0.157-0.709-0.303-1.049-0.481c-1.205-0.582-2.511-0.929-3.846-1.022
					c-1.251-0.169-2.509,0.251-3.408,1.136c-0.27,0.265-0.508,0.541-0.855,0.043c-1.168-1.623-2.937-1.969-4.755-2.131
					c-1.92-0.173-3.787,0.357-5.637,0.709c-1.964,0.368-3.889,0.925-5.848,1.314c-1.719,0.439-3.538,0.247-5.128-0.541
					c-1.616-0.785-2.702-2.36-2.862-4.149c-0.225-3.16,0.607-6.306,2.364-8.942c1.949-3.113,4.529-5.783,7.573-7.838
					c1.61-1.138,3.461-1.89,5.409-2.196c0.715-0.11,1.441,0.098,1.991,0.568c0.737,0.551,0.934,1.573,0.454,2.358
					c-0.387,0.661-0.836,1.284-1.342,1.861c-0.227,0.281-0.6,0.541-0.925,0.162c-0.243-0.281-0.541-0.73-0.487-1.017
					c0.163-0.473,0.431-0.902,0.784-1.255c0.157-0.184,0.476-0.211,0.671-0.368c0.151-0.115,0.242-0.292,0.249-0.481
					c0-0.146-0.265-0.373-0.389-0.362c-0.555-0.019-1.107,0.077-1.623,0.281c-1.188,0.613-2.302,1.359-3.321,2.223
					c-3.392,3.17-6.113,6.821-7.454,11.36c-0.368,1.239-0.703,2.483-0.346,3.787c0.541,2.018,1.796,2.981,3.895,3.116
					s4.187-0.357,6.242-0.817c2.402-0.541,4.771-1.314,7.194-1.58c2.423-0.265,5.052-0.514,7.492,0.541
					C79.19,56.793,80.909,58.085,82.172,59.772z"/>
				<path class="st3" d="M70.52,30.475c0-1.185,0-1.958,0-2.705c0-0.146,0.179-0.281,0.276-0.417c0.108,0.103,0.303,0.2,0.303,0.308
					c0.032,1.282,0.06,2.569,0,3.857c0,0.308-0.384,0.357-0.584,0.124c-0.6-0.757-1.206-1.525-1.823-2.304l-0.622-0.741
					c0,0.985,0.038,1.704,0,2.413c0,0.243-0.298,0.471-0.454,0.703c-0.141-0.2-0.395-0.395-0.4-0.6
					c-0.043-1.082-0.032-2.164,0-3.246c0-0.173,0.179-0.481,0.287-0.487c0.234-0.004,0.46,0.085,0.627,0.249
					C68.849,28.463,69.558,29.339,70.52,30.475z"/>
				<path class="st3" d="M112.752,29.339c-0.119-0.671,0.314-1.185,0.86-1.623c0.546-0.438,1.428-0.595,1.736-1.406
					c0-0.043,0.254,0,0.395,0c0,0.087,0,0.216-0.032,0.254c-0.438,0.395-0.368,0.66,0.173,0.86c0.863,0.28,1.41,1.127,1.309,2.029
					c0,1.493-0.806,2.364-2.218,2.369c-1.275-0.044-2.273-1.113-2.228-2.388C112.747,29.402,112.749,29.37,112.752,29.339z
					 M116.538,29.582c0-0.811-0.741-1.736-1.439-1.731c-0.841,0.07-1.518,0.72-1.623,1.558c-0.041,0.912,0.643,1.694,1.552,1.774
					c0.845-0.01,1.522-0.704,1.512-1.55c0-0.024-0.001-0.049-0.003-0.073V29.582z"/>
				<path class="st3" d="M57.489,28.987c0.038-0.46,0.06-0.92,0.13-1.369c0-0.119,0.233-0.319,0.298-0.298
					c0.168,0.049,0.417,0.2,0.427,0.325c0.065,0.817,0.049,1.623,0.103,2.456c0.019,0.597,0.518,1.066,1.115,1.047
					c0.138-0.004,0.273-0.035,0.399-0.09c0.411-0.112,0.688-0.495,0.665-0.92c-0.028-0.77-0.015-1.541,0.038-2.31
					c0-0.195,0.281-0.368,0.438-0.541c0.135,0.146,0.373,0.287,0.384,0.438c0.049,0.968,0.216,1.942-0.216,2.878
					c-0.288,0.867-1.175,1.386-2.072,1.212c-0.899-0.118-1.596-0.844-1.677-1.747c-0.022-0.36-0.022-0.722,0-1.082H57.489z"/>
				<path class="st3" d="M77.077,29.642c0-0.541,0-1.131,0-1.693c-0.015-0.412,0.306-0.759,0.718-0.774
					c0.022-0.001,0.044-0.001,0.066,0c0.928-0.079,1.851,0.195,2.586,0.768c0.624,0.502,0.87,1.339,0.617,2.099
					c-0.236,0.863-0.925,1.527-1.796,1.731c-0.149,0.034-0.302,0.048-0.454,0.043c-1.98,0.011-1.763,0.081-1.763-1.558v-0.617
					H77.077z M77.747,29.555c0,0.308,0,0.617,0,0.92c-0.043,0.541,0.254,0.741,0.741,0.671c0.352-0.038,0.696-0.128,1.022-0.265
					c0.672-0.3,1.034-1.037,0.86-1.753c-0.329-0.825-1.161-1.335-2.045-1.255c-0.903,0.195-0.465,0.985-0.573,1.525
					C77.746,29.45,77.744,29.503,77.747,29.555z"/>
				<path class="st3" d="M126.167,30.102c0-0.768,0-1.536,0-2.299c0-0.162,0.222-0.314,0.341-0.471
					c0.097,0.135,0.276,0.276,0.276,0.411c0,1.287,0,2.569,0,4.046c-1.428-0.719-1.801-2.239-3.143-3.062c0,0.963,0,1.812,0,2.656
					c0,0.119-0.157,0.233-0.243,0.346c-0.13-0.13-0.362-0.254-0.362-0.384c-0.027-1.185-0.027-2.375,0-3.559
					c0.038-0.198,0.169-0.365,0.352-0.449c0.192,0.001,0.373,0.088,0.492,0.238c0.676,0.833,1.331,1.688,1.996,2.532L126.167,30.102
					z"/>
				<path class="st3" d="M91.017,31.443c-0.07,0.119-0.097,0.238-0.173,0.276c-0.089,0.043-0.192,0.043-0.281,0
					c-0.124-0.081-0.287-0.184-0.325-0.308c-0.206-0.784-0.811-0.801-1.471-0.828c-0.757-0.027-1.309,0.141-1.574,0.914
					c-0.032,0.092-0.249,0.119-0.379,0.173c-0.038-0.141-0.151-0.308-0.108-0.417c0.541-1.223,1.082-2.45,1.623-3.651
					c0.216-0.449,0.541-0.465,0.811,0c0.492,0.833,0.893,1.736,1.298,2.613C90.638,30.632,90.833,31.048,91.017,31.443z
					 M88.766,28.311L88.02,29.88c0.243,0.025,0.486,0.038,0.73,0.038c0.757-0.049,0.784-0.087,0.481-0.763
					C89.129,28.949,88.999,28.744,88.766,28.311z"/>
				<path class="st3" d="M97.275,29.555c-0.07,0.816,0.535,1.533,1.351,1.603c0.304,0.026,0.609-0.043,0.872-0.196
					c0.184-0.087,0.341-0.233,0.541-0.308c0.06-0.027,0.195,0.043,0.249,0.108c0.061,0.076,0.085,0.175,0.065,0.27
					c-0.247,0.459-0.709,0.762-1.228,0.806c-1.342,0.151-2.552-0.814-2.704-2.155c0-0.003-0.001-0.006-0.001-0.008
					c0.04-1.276,1-2.335,2.267-2.499c0.501,0.059,0.984,0.223,1.417,0.481c0.13,0.06,0.157,0.335,0.233,0.541
					c-0.177,0.047-0.358,0.072-0.541,0.076c-0.146-0.046-0.286-0.11-0.417-0.189C98.173,27.592,97.237,28.257,97.275,29.555z"/>
				<path class="st3" d="M86.835,44.22c-0.254,0-0.406,0-0.541,0c-0.389-0.038-0.579-0.227-0.362-0.606
					c0.28-0.542,0.608-1.058,0.979-1.542c0.503-0.6,1.25-0.292,1.888-0.308c0.725,0,0.784,0.151,0.389,0.784l-0.4,0.649
					C88.301,43.944,87.684,44.415,86.835,44.22z"/>
				<path class="st3" d="M48.775,29.572v-0.774c0-1.812-0.092-1.623,1.704-1.623c0.257-0.027,0.516-0.027,0.774,0
					c0.215,0.076,0.421,0.177,0.611,0.303c-0.17,0.143-0.364,0.255-0.573,0.33c-0.36,0.036-0.722,0.036-1.082,0
					c-0.487,0-0.768,0.103-0.779,0.676c-0.011,0.573,0.243,0.811,0.828,0.855c0.438,0,1.223-0.314,1.239,0.357
					c0,0.492-0.774,0.287-1.19,0.27c-0.698,0-0.925,0.27-0.86,0.909c0.025,0.205,0.01,0.412-0.043,0.611
					c-0.038,0.114-0.211,0.26-0.308,0.249c-0.135-0.042-0.239-0.15-0.276-0.287c0-0.617,0-1.233,0-1.85L48.775,29.572z"/>
				<path class="st3" d="M119.622,59.448c-0.627-0.013-1.146-0.491-1.212-1.114c0.116-0.501,0.502-0.896,1.001-1.022
					c0.629,0.039,1.123,0.554,1.136,1.185c0.066,0.458-0.253,0.883-0.711,0.949C119.765,59.455,119.693,59.456,119.622,59.448z
					 M120.092,58.425l0.049-0.07h-0.076L120.092,58.425z M119.405,58.966l0.087,0.054v-0.092L119.405,58.966z"/>
				<path class="st3" d="M106.882,29.599c0,0.617,0,1.228,0,1.839c-0.041,0.135-0.15,0.238-0.287,0.27
					c-0.135-0.026-0.248-0.12-0.298-0.249c0-1.277-0.032-2.553,0-3.83c0-0.13,0.238-0.249,0.368-0.373
					c0.081,0.119,0.233,0.233,0.233,0.352c0.027,0.66,0,1.325,0,1.991H106.882z"/>
			</g>
		</g>
	</g>
	<g class="st1">
		<path class="st4" d="M53.085,58.683c0.784-0.077,1.554-0.153,2.323-0.229c0.054-0.005,0.107-0.019,0.161-0.021
			c0.541-0.013,0.473-0.02,0.481-0.535c0.005-0.289,0.001-0.578-0.007-0.866c-0.005-0.18,0.043-0.273,0.248-0.3
			c0.981-0.129,1.96-0.275,2.939-0.418c0.48-0.07,0.958-0.147,1.452-0.223c0-0.686,0-1.35,0-2.066
			c-1.538,0.058-3.037,0.428-4.601,0.537c0-0.485-0.005-0.978,0.009-1.471c0.001-0.048,0.118-0.122,0.19-0.135
			c0.938-0.168,1.877-0.329,2.816-0.487c0.646-0.109,1.293-0.213,1.986-0.326c0-0.86,0-1.694,0-2.58
			c0.195,0.049,0.331,0.077,0.464,0.117c0.68,0.202,1.36,0.404,2.039,0.612c0.095,0.029,0.257,0.097,0.254,0.139
			c-0.007,0.11-0.062,0.243-0.142,0.32c-0.634,0.609-1.138,1.304-1.414,2.144c-0.583,1.778,0.212,3.366,2.017,4.124
			c0.48,0.201,0.941,0.16,1.424,0.096c1.366-0.182,2.733-0.348,4.098-0.532c1.65-0.222,3.299-0.456,4.948-0.685
			c0.098-0.014,0.197-0.024,0.295-0.036c1.149-0.141,1.788-0.959,2.308-1.85c0.756-1.296,0.515-2.644-0.574-3.836
			c-0.871-0.954-1.943-1.556-3.186-1.884c-0.474-0.125-0.934-0.303-1.4-0.519c0.696-0.135,1.391-0.27,2.087-0.404
			c0.658-0.127,1.272-0.002,1.841,0.343c0.269,0.163,0.521,0.357,0.796,0.51c0.895,0.501,1.801,0.981,2.695,1.485
			c0.853,0.481,1.696,0.98,2.607,1.508c-1.531,1.423-3.024,2.811-4.516,4.198c0.017,0.036,0.034,0.073,0.05,0.109
			c0.171-0.011,0.344-0.013,0.513-0.036c1.266-0.173,2.531-0.355,3.797-0.523c0.33-0.044,0.609-0.14,0.859-0.384
			c0.593-0.58,1.218-1.127,1.821-1.697c0.125-0.118,0.23-0.143,0.376-0.064c0.696,0.377,1.408,0.727,2.085,1.135
			c0.342,0.206,0.663,0.25,1.043,0.191c1.361-0.209,2.725-0.398,4.087-0.595c0.08-0.012,0.158-0.034,0.29-0.062
			c-1.694-1.059-3.348-2.093-5.03-3.144c0.303-0.279,0.59-0.545,0.878-0.809c1.869-1.711,3.74-3.421,5.606-5.136
			c0.116-0.106,0.205-0.127,0.355-0.076c1.986,0.682,3.974,1.36,5.965,2.029c0.182,0.061,0.221,0.19,0.257,0.336
			c0.31,1.264,0.614,2.53,0.926,3.793c0.121,0.488,0.251,0.974,0.393,1.456c0.053,0.178,0.143,0.348,0.236,0.51
			c0.124,0.216,0.312,0.281,0.553,0.188c0.244-0.094,0.356-0.266,0.329-0.523c-0.174-1.657-0.353-3.314-0.524-4.971
			c-0.154-1.497-0.296-2.994-0.45-4.491c-0.154-1.496-0.32-2.992-0.474-4.488c-0.171-1.667-0.331-3.335-0.502-5.001
			c-0.153-1.487-0.317-2.973-0.47-4.461c-0.135-1.317-0.259-2.635-0.394-3.953c-0.135-1.318-0.281-2.634-0.416-3.952
			c-0.129-1.252-0.252-2.505-0.379-3.774c4.456,0,8.894,0,13.34,0c0,15.909,0,31.808,0,47.762c-2.688-0.166-5.347-0.33-8.03-0.495
			c-0.006-0.136-0.015-0.231-0.015-0.327c-0.002-2.248-0.003-4.495-0.004-6.743c0-0.76-0.492-1.273-1.256-1.338
			c-0.776-0.067-1.57,0.235-1.758,1.475c-0.604-0.21-1.207-0.409-1.802-0.63c-1.415-0.524-2.834-1.038-4.235-1.596
			c-0.882-0.351-1.762-0.349-2.677-0.207c-1.076,0.167-2.16,0.282-3.24,0.419c-1.223,0.156-2.446,0.316-3.67,0.468
			c-1.099,0.137-2.199,0.265-3.298,0.398c-1.126,0.137-2.253,0.274-3.379,0.413c-1.072,0.132-2.144,0.267-3.217,0.4
			c-1.072,0.133-2.145,0.262-3.217,0.397c-1.233,0.155-2.465,0.313-3.698,0.47c-1.215,0.155-2.429,0.311-3.644,0.465
			c-1.072,0.135-2.144,0.267-3.215,0.402c-1.089,0.138-2.177,0.286-3.268,0.415c-1.342,0.159-2.688,0.282-4.027,0.458
			c-1.006,0.133-2.044,0.205-2.997,0.518c-1.602,0.526-2.767,1.61-3.107,3.329c-0.215,1.086,0.16,2.083,0.845,2.947
			c0.183,0.231,0.416,0.423,0.619,0.639c0.056,0.06,0.13,0.159,0.113,0.214c-0.019,0.06-0.13,0.118-0.208,0.129
			c-0.81,0.118-1.621,0.227-2.433,0.338c-0.223,0.031-0.445,0.061-0.705,0.096c-0.007-0.1-0.02-0.193-0.021-0.286
			c-0.011-2.527-0.021-5.054-0.031-7.581c-0.002-0.435-0.116-0.615-0.535-0.705c-0.537-0.115-1.079-0.163-1.62,0.009
			c-0.406,0.129-0.529,0.274-0.529,0.695c0,2.636-0.001,5.271-0.001,7.907c0,0.106,0,0.213,0,0.346
			c-2.629,0.317-5.236,0.631-7.864,0.948c0-17.398,0-34.768,0-52.154c3.565,0,7.118,0,10.682,0c0,0.358,0.01,0.714-0.002,1.07
			c-0.041,1.225-0.087,2.45-0.135,3.675c-0.087,2.189-0.177,4.379-0.265,6.568c-0.089,2.225-0.181,4.45-0.266,6.676
			c-0.062,1.622-0.112,3.245-0.175,4.867c-0.103,2.649-0.212,5.298-0.318,7.947c-0.08,1.982-0.158,3.964-0.24,5.946
			c-0.013,0.303,0.282,0.578,0.599,0.543c0.284-0.032,0.559-0.286,0.612-0.57c0.581-3.126,1.159-6.253,1.743-9.379
			c0.533-2.853,1.076-5.704,1.609-8.557c0.533-2.853,1.054-5.709,1.587-8.562c0.532-2.852,1.073-5.703,1.609-8.554
			c0.093-0.494,0.195-0.988,0.27-1.485c0.026-0.172,0.099-0.202,0.246-0.2c0.515,0.005,1.029,0.002,1.544,0.002
			c12.432,0,24.865,0.001,37.297-0.006c0.253,0,0.354,0.067,0.413,0.315c0.584,2.464,1.18,4.924,1.772,7.386
			c0.006,0.024,0.001,0.051,0.001,0.118c-0.364-0.142-0.711-0.275-1.055-0.413c-1.025-0.411-2.049-0.825-3.076-1.232
			c-0.103-0.041-0.233-0.074-0.335-0.049c-0.418,0.101-0.833,0.22-1.243,0.351c-0.062,0.02-0.126,0.141-0.129,0.218
			c-0.024,0.685-0.035,1.37-0.049,2.056c-0.002,0.09,0,0.18,0,0.313c-0.692-0.274-1.358-0.535-2.023-0.802
			c-2.375-0.955-4.739-1.939-7.129-2.854c-0.883-0.338-1.819-0.566-2.749-0.748c-1.418-0.276-2.817-0.067-4.175,0.391
			c-1.625,0.548-3.044,1.453-4.223,2.687c-0.8,0.837-1.583,1.708-2.095,2.809c-0.462-0.216-0.915-0.426-1.366-0.64
			c-1.033-0.491-2.075-0.95-3.21-1.163c-2.944-0.553-5.348,0.417-7.327,2.587c-0.927,1.016-1.441,2.248-1.799,3.551
			c-0.161,0.583-0.106,0.635,0.472,0.498c1.049-0.247,2.093-0.515,3.134-0.792c0.099-0.026,0.202-0.164,0.241-0.273
			c0.302-0.842,0.787-1.533,1.577-1.987c0.694-0.399,1.434-0.466,2.192-0.265c0.691,0.183,1.051,0.99,0.711,1.653
			c-0.215,0.419-0.509,0.809-0.819,1.166c-2.201,2.531-4.416,5.049-6.623,7.576c-0.314,0.359-0.604,0.74-0.903,1.112
			c-0.032,0.04-0.067,0.094-0.068,0.142c-0.005,0.395-0.003,0.79-0.003,1.217c0.44-0.098,0.886-0.192,1.329-0.295
			c3.185-0.737,6.37-1.475,9.555-2.213c0.403-0.093,0.805-0.186,1.209-0.275c0.136-0.03,0.224-0.085,0.224-0.244
			c-0.003-0.702-0.001-1.404-0.001-2.149c-1.836,0.399-3.673,0.799-5.589,1.215c0.098-0.182,0.147-0.335,0.245-0.444
			c0.871-0.974,1.746-1.945,2.629-2.908c0.708-0.771,1.408-1.547,1.935-2.46c0.851-1.472,0.913-2.963,0.112-4.473
			c-0.1-0.188-0.235-0.357-0.383-0.58c0.362,0.178,0.694,0.338,1.023,0.505c0.345,0.174,0.684,0.362,1.034,0.528
			c0.14,0.067,0.179,0.129,0.136,0.288c-0.155,0.58-0.355,1.159-0.422,1.751c-0.286,2.522,0.497,5.097,2.831,6.501
			c0.792,0.477,1.686,0.753,2.6,0.822c0.529,0.04,1.083-0.127,1.614-0.249c1.655-0.381,3.306-0.779,4.954-1.187
			c0.218-0.054,0.431-0.178,0.614-0.314c1.748-1.3,3.075-2.928,3.79-5.005c0.566-1.643,0.637-3.311,0.14-4.99
			c-0.244-0.824-0.737-1.473-1.381-2.02c-0.037-0.031-0.072-0.065-0.088-0.134c0.614,0.247,1.227,0.494,1.841,0.742
			c1.991,0.804,3.98,1.611,5.973,2.408c0.184,0.073,0.235,0.168,0.235,0.357c0.003,2.03,0.015,4.061,0.025,6.091
			c0,0.053,0.005,0.106,0.008,0.192c0.492-0.124,0.966-0.243,1.461-0.367c0-1.165,0.005-2.311-0.003-3.456
			c-0.002-0.321,0.18-0.487,0.424-0.633c0.2-0.12,0.381-0.071,0.559,0.035c0.229,0.137,0.274,0.368,0.282,0.607
			c0.009,0.27,0.002,0.541,0.002,0.812c0,0.704-0.001,1.408-0.002,2.112c0,0.096,0,0.192,0,0.327
			c0.453-0.123,0.869-0.229,1.278-0.355c0.054-0.017,0.111-0.136,0.11-0.206c-0.027-1.359,0.109-2.725-0.162-4.074
			c-0.003-0.016,0.005-0.035,0.015-0.088c0.412,0.151,0.819,0.297,1.224,0.448c0.522,0.194,1.042,0.396,1.566,0.585
			c0.158,0.057,0.243,0.139,0.288,0.31c0.422,1.597,0.855,3.191,1.285,4.786c0.012,0.043,0.03,0.089,0.026,0.132
			c-0.008,0.084-0.002,0.195-0.052,0.241c-0.045,0.042-0.168,0.038-0.237,0.008c-0.63-0.265-1.274-0.504-1.877-0.821
			c-0.749-0.393-1.486-0.386-2.289-0.197c-5.839,1.376-11.682,2.732-17.527,4.085c-3.264,0.755-6.533,1.487-9.797,2.237
			c-2.985,0.686-5.967,1.382-8.95,2.079c-1.626,0.38-3.249,0.773-4.876,1.152c-0.168,0.039-0.259,0.102-0.262,0.278
			c-0.001,0.071-0.025,0.142-0.029,0.214c-0.033,0.628-0.032,0.625,0.549,0.876c0.18,0.078,0.351,0.173,0.494,0.244
			c-0.238,0.463-0.495,0.885-0.678,1.336c-0.436,1.076,0.122,2.08,0.747,2.692c0.161,0.158,0.342,0.139,0.525,0.108
			c0.903-0.157,1.806-0.32,2.708-0.487c0.234-0.043,0.681-0.577,0.68-0.812c0-0.051-0.06-0.127-0.11-0.149
			c-0.248-0.104-0.5-0.203-0.757-0.283c-0.061-0.019-0.165,0.022-0.218,0.07c-0.127,0.114-0.23,0.254-0.352,0.374
			c-0.668,0.662-1.534,0.419-1.764-0.506c-0.127-0.509-0.082-0.979,0.298-1.41c0.396-0.449,0.916-0.383,1.303-0.234
			c0.108,0.042,0.265,0.055,0.362,0.006c0.335-0.17,0.653-0.373,1.039-0.599c-0.261-0.268-0.487-0.499-0.712-0.731
			c0.008-0.019,0.016-0.038,0.025-0.057c0.175,0.04,0.353,0.07,0.524,0.122c0.241,0.074,0.471,0.191,0.715,0.24
			c0.307,0.062,0.384,0.252,0.384,0.522c-0.001,0.939,0,1.877,0,2.816c0,0.097,0,0.194,0,0.332c0.358-0.065,0.683-0.123,1.008-0.182
			c0.893-0.162,1.787-0.32,2.679-0.491c0.07-0.013,0.17-0.103,0.177-0.166c0.023-0.204,0.008-0.412,0.008-0.647
			c-0.73,0.141-1.433,0.277-2.162,0.417c0-0.279-0.013-0.541,0.008-0.799c0.006-0.073,0.104-0.185,0.176-0.2
			c0.52-0.105,1.042-0.196,1.567-0.276c0.148-0.023,0.202-0.074,0.197-0.221c-0.008-0.278-0.002-0.556-0.002-0.868
			c-0.658,0.118-1.282,0.229-1.989,0.356c0-0.287-0.02-0.536,0.013-0.777c0.009-0.066,0.17-0.138,0.272-0.161
			c0.648-0.146,1.298-0.28,2.009-0.43c0-0.387,0.003-0.781-0.001-1.174c-0.003-0.246,0.072-0.322,0.317-0.292
			c0.071,0.009,0.144,0.021,0.211,0.045c0.515,0.179,0.587,0.181,0.586,0.739c-0.003,1.282-0.001,2.563-0.001,3.845
			c0,0.098,0,0.196,0,0.344c0.52-0.097,1.01-0.18,1.495-0.289c0.052-0.012,0.097-0.176,0.098-0.27
			c0.008-0.739,0.004-1.478,0.004-2.305c0.236,0.199,0.416,0.337,0.581,0.492c0.538,0.508,1.066,1.026,1.61,1.527
			c0.075,0.069,0.218,0.109,0.321,0.095c0.436-0.06,0.866-0.16,1.303-0.217c0.23-0.03,0.285-0.124,0.284-0.349
			c-0.012-1.634-0.01-3.267-0.011-4.901c0-0.053,0.008-0.106,0.014-0.182c0.245,0.059,0.484,0.104,0.711,0.181
			c0.065,0.022,0.134,0.137,0.138,0.213c0.015,0.332,0.006,0.664,0.006,1.05c0.514-0.093,0.994-0.179,1.503-0.271
			c0,1.215,0,2.428,0,3.691c0.58-0.087,1.125-0.168,1.689-0.252c0-1.291,0-2.552,0-3.817c0.412-0.102,0.8-0.214,1.195-0.291
			c0.189-0.036,0.227-0.122,0.223-0.291c-0.009-0.422-0.003-0.845-0.003-1.344c0.298,0.163,0.536,0.278,0.754,0.422
			c0.05,0.033,0.049,0.163,0.049,0.248c0.003,1.047,0.025,2.095-0.007,3.141c-0.017,0.558,0.421,1.264,1.234,1.268
			c0.598,0.003,1.198-0.102,1.794-0.181c0.319-0.042,0.637-0.114,0.947-0.204c0.718-0.208,1.042-0.757,1.18-1.441
			c0.213-1.06,0.165-2.134,0.15-3.206c-0.006-0.431-0.001-0.862-0.001-1.321c0.41,0.18,0.832,0.353,1.239,0.557
			c0.067,0.034,0.096,0.199,0.096,0.304c-0.002,1.39-0.012,2.779-0.02,4.169c-0.001,0.097,0,0.194,0,0.342
			c0.67-0.111,1.308-0.211,1.941-0.331c0.054-0.01,0.116-0.145,0.119-0.224c0.012-0.404,0.006-0.809,0.006-1.272
			c0.344,0.166,0.649,0.31,0.951,0.461c0.33,0.165,0.654,0.343,0.987,0.503c0.093,0.045,0.21,0.082,0.307,0.066
			c0.742-0.124,1.482-0.262,2.303-0.41c-0.742-0.502-1.415-0.957-2.112-1.429c0.606-0.486,1.117-1.03,1.018-1.853
			c-0.101-0.84-0.765-1.209-1.525-1.571c0.14-0.043,0.216-0.095,0.278-0.081c0.604,0.138,1.222,0.242,1.802,0.45
			c0.348,0.125,0.657,0.394,0.946,0.642c0.369,0.316,0.71,0.668,1.043,1.023c0.092,0.098,0.154,0.263,0.157,0.4
			c0.016,0.684,0.007,1.368,0.007,2.107c0.675-0.126,1.317-0.24,1.956-0.373c0.053-0.011,0.111-0.149,0.112-0.228
			c0.009-0.614,0.002-1.228,0.008-1.841c0.001-0.103,0.019-0.221,0.071-0.307c0.807-1.321,1.624-2.637,2.431-3.959
			c0.113-0.185,0.228-0.243,0.439-0.165c1.086,0.401,2.172,0.805,3.268,1.178c0.319,0.109,0.487,0.252,0.568,0.598
			c0.446,1.906,0.921,3.804,1.391,5.705c0.123,0.497,0.259,0.99,0.388,1.485c0.069,0.264,0.006,0.346-0.257,0.262
			c-0.461-0.147-0.913-0.322-1.364-0.497c-1.146-0.447-2.298-0.881-3.432-1.36c-0.63-0.266-1.249-0.273-1.9-0.142
			c-1.471,0.295-2.944,0.582-4.419,0.857c-2.05,0.382-4.102,0.753-6.154,1.126c-2.132,0.387-4.264,0.768-6.396,1.156
			c-2.131,0.388-4.261,0.786-6.392,1.174c-2.025,0.369-4.051,0.73-6.076,1.099c-2.237,0.408-4.473,0.823-6.709,1.232
			c-1.609,0.294-3.218,0.588-4.829,0.871c-0.174,0.03-0.229,0.1-0.238,0.258c-0.012,0.207-0.03,0.413-0.055,0.618
			c-0.021,0.171,0.044,0.286,0.21,0.321c0.734,0.157,0.898,0.633,0.89,1.334c-0.024,1.956,0.021,3.912,0.04,5.868
			C53.066,58.543,53.077,58.604,53.085,58.683z M85.104,34.428c0.514-0.098,0.977-0.187,1.447-0.277c0-1.085,0.011-2.14-0.007-3.194
			c-0.005-0.299,0.075-0.434,0.379-0.484c0.378-0.062,0.747-0.178,1.114-0.27c0-0.51,0-1.001,0-1.507
			c-0.502,0.096-0.983,0.189-1.496,0.287c0-0.491,0-0.948,0-1.434c-0.397,0.082-0.764,0.158-1.132,0.232
			c-0.227,0.046-0.313,0.164-0.311,0.412c0.011,1.985,0.006,3.969,0.006,5.954C85.104,34.227,85.104,34.306,85.104,34.428z
			 M44.551,55.03c-0.199,0.324-0.201,0.664-0.123,1c0.151,0.648,0.875,1.342,1.491,1.417c0.82,0.1,1.525-0.138,2.002-0.838
			c0.136-0.199,0.161-0.482,0.203-0.732c0.01-0.058-0.107-0.189-0.182-0.204C46.815,55.452,45.686,55.243,44.551,55.03z
			 M101.126,53.696c0.192,1.273,1.374,1.765,2.325,1.485c0.916-0.27,1.564-1.307,1.268-2.052
			C103.528,53.317,102.335,53.505,101.126,53.696z"/>
		<path class="st4" d="M112.842,66.118c0,1.977,0,3.921,0,5.882c-25.364,0-50.729,0-76.143,0c0-0.596,0-1.193,0-1.815
			c5.565-0.804,11.16-1.612,16.822-2.429c-0.492-0.223-0.924-0.398-1.337-0.61c-0.704-0.362-1.355-0.802-1.758-1.511
			c-0.611-1.076-0.42-2.487,0.444-3.468c0.829-0.942,1.883-1.415,3.119-1.519c0.575-0.048,1.15-0.143,1.724-0.138
			c0.647,0.006,1.293,0.098,1.938,0.16c1.022,0.098,2.044,0.203,3.066,0.305c1.013,0.101,2.026,0.202,3.04,0.302
			c0.995,0.098,1.991,0.195,2.986,0.294c1.022,0.101,2.044,0.204,3.066,0.304c0.996,0.098,1.991,0.194,2.987,0.292
			c1.013,0.1,2.026,0.201,3.04,0.301c1.013,0.099,2.027,0.196,3.04,0.296c1.004,0.099,2.008,0.202,3.013,0.301
			c1.004,0.099,2.009,0.196,3.013,0.294c1.005,0.099,2.009,0.199,3.014,0.298c1.013,0.1,2.026,0.198,3.04,0.298
			c0.995,0.098,1.991,0.197,2.986,0.295c1.004,0.1,2.008,0.2,3.013,0.3c1.022,0.102,2.044,0.204,3.067,0.304
			c1.004,0.098,2.009,0.193,3.014,0.292c1.013,0.1,2.026,0.205,3.039,0.306c0.986,0.098,1.973,0.193,2.959,0.29
			c1.022,0.1,2.045,0.202,3.067,0.303C112.333,66.066,112.565,66.09,112.842,66.118z"/>
		<path class="st4" d="M101.821,63.846c-13.072-1.315-26.12-2.627-39.167-3.94c-0.003-0.029-0.006-0.058-0.008-0.087
			c0.218-0.046,0.434-0.112,0.655-0.136c0.771-0.082,1.543-0.146,2.314-0.224c0.923-0.094,1.846-0.192,2.768-0.293
			c1.056-0.116,2.112-0.239,3.168-0.357c1.065-0.12,2.131-0.239,3.196-0.355c1.074-0.118,2.149-0.232,3.224-0.349
			c0.931-0.101,1.863-0.203,2.794-0.303c0.922-0.099,1.845-0.196,2.768-0.293c1.147-0.121,2.294-0.238,3.441-0.361
			c1.03-0.111,2.059-0.227,3.088-0.342c1.252-0.14,2.505-0.282,3.757-0.419c0.077-0.009,0.162,0,0.237,0.022
			c1.624,0.488,3.248,0.979,4.871,1.47c0.902,0.273,1.803,0.551,2.707,0.817c0.143,0.042,0.214,0.088,0.213,0.249
			c-0.005,1.588-0.004,3.177-0.005,4.765C101.84,63.744,101.831,63.778,101.821,63.846z"/>
		<path class="st4" d="M75.497,24.914c1.879-0.046,3.32,1,3.75,2.781c0.286,1.186,0.001,2.296-0.635,3.303
			c-0.987,1.56-2.391,2.557-4.222,2.872c-1.734,0.298-3.253-0.344-4.079-1.787c-0.635-1.11-0.554-2.296-0.027-3.426
			c0.86-1.844,2.328-3.008,4.257-3.599C74.845,24.965,75.177,24.96,75.497,24.914z"/>
		<path class="st4" d="M70.368,50.409c0.853,0.037,1.72,0.107,2.506,0.553c0.383,0.217,0.725,0.472,0.835,0.935
			c0.143,0.605-0.109,1.088-0.515,1.484c-0.979,0.953-2.156,1.506-3.524,1.631c-0.783,0.072-1.564,0.099-2.335-0.102
			c-0.644-0.168-1.202-0.469-1.613-1.012c-0.233-0.308-0.273-0.639-0.152-0.993c0.251-0.733,0.809-1.195,1.437-1.588
			C68.025,50.677,69.155,50.433,70.368,50.409z"/>
		<path class="st4" d="M96.181,28.465c-0.862-0.337-1.686-0.665-2.515-0.982c-0.301-0.115-0.607-0.23-0.92-0.296
			c-0.709-0.149-1.205,0.227-1.64,0.722c-0.081,0.092-0.16,0.186-0.283,0.33c0-1.545,0-3.025,0-4.538
			c0.375,0.154,0.738,0.3,1.1,0.451c1.144,0.479,2.287,0.961,3.433,1.437c0.141,0.058,0.236,0.127,0.272,0.289
			c0.178,0.797,0.368,1.592,0.552,2.388C96.189,28.309,96.181,28.355,96.181,28.465z"/>
		<path class="st4" d="M76.474,39.007c0.453,0.225,0.882,0.432,1.302,0.655c0.061,0.032,0.115,0.139,0.116,0.212
			c0.007,1.01,0.015,2.02-0.001,3.029c-0.007,0.427-0.302,0.637-0.808,0.633c-0.366-0.003-0.608-0.223-0.613-0.606
			c-0.016-1.271-0.018-2.542-0.025-3.813C76.445,39.091,76.458,39.066,76.474,39.007z"/>
		<path class="st4" d="M80.812,46.164c1.842,0.39,3.685,0.78,5.582,1.181c-0.173,0.162-0.318,0.3-0.466,0.436
			c-0.287,0.261-0.587,0.509-0.858,0.785c-0.151,0.154-0.284,0.157-0.449,0.061c-0.544-0.317-1.088-0.632-1.63-0.953
			c-0.65-0.385-1.299-0.773-1.945-1.166c-0.107-0.065-0.192-0.166-0.288-0.25C80.777,46.227,80.794,46.196,80.812,46.164z"/>
		<path class="st4" d="M63.792,41.324c0.969,0.343,1.938,0.684,2.905,1.035c0.065,0.023,0.144,0.122,0.145,0.187
			c0.011,0.666,0.007,1.332,0.007,2.086c-1.113-1.065-2.157-2.095-3.15-3.175C63.729,41.412,63.76,41.368,63.792,41.324z"/>
		<path class="st4" d="M90.494,38.446c-0.191-0.184-0.359-0.331-0.51-0.493c-0.381-0.408-0.757-0.821-1.13-1.236
			c-0.041-0.046-0.049-0.121-0.072-0.183c0.061-0.015,0.126-0.053,0.182-0.043c0.652,0.124,1.302,0.255,1.953,0.385
			c0.194,0.039,0.3,0.145,0.204,0.342C90.926,37.619,90.716,38.013,90.494,38.446z"/>
		<path class="st4" d="M83.359,40.359c0-0.45,0-0.862,0-1.281c0.305-0.125,0.602-0.103,0.897-0.002
			c0.319,0.11,0.437,0.265,0.437,0.572c0,0.292-0.171,0.488-0.426,0.561C83.979,40.293,83.673,40.31,83.359,40.359z"/>
	</g>
	<g class="st1">
		<path class="st4" d="M83.85,35.413c12.336,0,24.672,0,37.007,0c1.126,0,1.127,0.001,1.127,1.142c0,4.523-0.016,9.046,0.016,13.569
			c0.005,0.753-0.195,0.996-0.978,0.996c-24.817-0.019-49.635-0.017-74.452-0.005c-0.684,0-0.972-0.14-0.966-0.911
			c0.037-4.581,0.039-9.162,0-13.743c-0.007-0.83,0.216-1.068,1.063-1.066C59.062,35.421,71.456,35.413,83.85,35.413z
			 M77.532,48.584c-1.016-0.544-1.101-0.663-1.108-1.728c-0.005-0.695-0.035-1.393,0.015-2.085c0.021-0.291,0.218-0.57,0.335-0.855
			c0.343,0.149,0.801,0.206,1.009,0.463c0.802,0.992,1.524,2.046,2.274,3.079c0.889,1.225,1.982,1.543,3.527,0.979
			c-2.386-0.764-3.039-3.064-4.547-4.697c0.324-0.139,0.53-0.228,0.736-0.315c1.283-0.541,1.84-1.404,1.734-2.689
			c-0.089-1.088-0.876-2.071-2.129-2.189c-1.843-0.174-3.709-0.114-5.565-0.147c-0.026,0-0.055,0.087-0.121,0.199
			c1.195,0.08,1.236,0.887,1.222,1.797c-0.033,1.998-0.003,3.998-0.016,5.996c-0.003,0.457,0.047,0.976-0.15,1.353
			c-0.179,0.342-0.659,0.529-1.078,0.838C75.006,48.584,76.269,48.584,77.532,48.584z M97.796,40.967
			c0.062-0.027,0.123-0.055,0.185-0.082c2.232,2.692,4.464,5.383,6.696,8.075c0.094-0.052,0.188-0.104,0.281-0.155
			c0-0.311,0-0.621,0-0.932c0-2.434,0-4.869,0-7.303c0-1.482,0-1.482,1.482-2.107c-1.299,0-2.408,0-3.517,0
			c-0.022,0.07-0.045,0.14-0.067,0.21c0.744,0.029,1.35,0.269,1.362,1.063c0.029,2.013,0.01,4.027,0.01,6.258
			c-0.334-0.373-0.543-0.591-0.735-0.824c-1.718-2.081-3.428-4.17-5.153-6.246c-0.57-0.686-2.323-0.852-3.094-0.324
			c1.852,0.742,1.866,0.762,1.866,2.788c0,1.652,0.009,3.304-0.004,4.956c-0.007,0.941,0.304,2.063-1.283,2.263
			c1.177,0.122,2.24,0.244,3.343-0.093c-0.998,0.052-1.346-0.527-1.36-1.308C97.772,45.127,97.796,43.047,97.796,40.967z
			 M52.924,48.588c-0.502-0.358-1.237-0.618-1.277-0.958c-0.145-1.237-0.057-2.501-0.057-3.781c0.559,0.06,0.99,0.143,1.422,0.146
			c1.292,0.009,2.535-0.174,3.276-1.4c1.12-1.854-0.033-3.985-2.447-4.256c-1.723-0.193-3.485-0.043-5.229-0.039
			c-0.018,0-0.035,0.086-0.052,0.132c1.336,0.412,1.337,0.412,1.338,1.884c0.001,2.029,0.001,4.058,0,6.087
			c-0.001,1.484-0.002,1.484-1.326,1.988c-0.027,0.01-0.023,0.099-0.042,0.197C49.985,48.588,51.429,48.588,52.924,48.588z
			 M119.232,48.647c0.029-0.066,0.058-0.131,0.088-0.197c-1.154-0.208-1.494-1.128-1.864-2.003
			c-1.116-2.636-2.214-5.279-3.325-7.917c-0.104-0.247-0.243-0.479-0.459-0.901c-0.21,0.409-0.334,0.622-0.433,0.847
			c-1.054,2.414-2.092,4.834-3.161,7.241c-0.476,1.071-0.715,2.316-1.959,2.909c1.04,0,2.08,0,3.12,0
			c-1.236-0.63-1.184-0.725-0.741-2.051c0.388-1.161,1.015-1.643,2.217-1.432c0.311,0.054,0.639,0.008,0.96,0.008
			c1.602,0,1.602,0,2.179,1.45c0.513,1.29,0.513,1.29-0.762,2.045C116.588,48.647,117.91,48.647,119.232,48.647z M66.779,38.395
			c-0.059,0.081-0.117,0.162-0.176,0.243c1.286,0.019,1.347,0.8,1.322,1.684c-0.033,1.158,0.012,2.318-0.015,3.476
			c-0.019,0.806-0.018,1.627-0.178,2.411c-0.238,1.167-1.635,2.002-3.062,1.951c-1.361-0.049-2.29-0.77-2.411-2.147
			c-0.157-1.782-0.14-3.58-0.186-5.371c-0.025-0.984-0.098-2.015,1.507-2.005c-0.063-0.072-0.126-0.143-0.189-0.215
			c-1.336,0-2.673,0-4.009,0c1.21,0.251,1.232,1.111,1.214,2.041c-0.027,1.448-0.035,2.897,0.002,4.345
			c0.041,1.598,0.33,3.201,2.113,3.696c1.074,0.298,2.315,0.287,3.426,0.097c1.574-0.269,2.397-1.462,2.419-3.065
			c0.02-1.477,0.002-2.954,0.007-4.431c0.004-1.075-0.152-2.231,1.267-2.709C68.813,38.395,67.796,38.395,66.779,38.395z
			 M90.834,48.577c-1.038-0.268-1.204-0.977-1.198-1.839c0.013-1.996-0.001-3.992,0.004-5.988c0.002-0.966-0.16-2.028,1.223-2.302
			c-1.318,0-2.637,0-3.955,0c1.206,0.502,1.293,0.624,1.294,1.983c0.001,1.967-0.011,3.934,0.005,5.901
			c0.008,0.984-0.006,1.926-1.24,2.245C88.256,48.577,89.545,48.577,90.834,48.577z"/>
		<path class="st4" d="M37.073,51.104c-2.331,0-4.663-0.026-6.993,0.015c-0.774,0.014-1.086-0.178-1.08-1.014
			c0.035-4.519,0.014-9.039,0.018-13.558c0.001-1.13,0.039-1.16,1.193-1.16c4.662-0.001,9.325,0.018,13.987-0.018
			c0.81-0.006,1.048,0.238,1.043,1.03c-0.03,4.577-0.029,9.155-0.001,13.732c0.005,0.76-0.229,1.004-0.999,0.99
			C41.852,51.077,39.462,51.104,37.073,51.104z M37.07,50.721c2.301,0,4.603-0.022,6.904,0.013c0.708,0.011,0.964-0.19,0.959-0.926
			c-0.029-4.431-0.027-8.863-0.001-13.294c0.004-0.693-0.225-0.893-0.907-0.889c-4.573,0.024-9.147,0.023-13.721,0.001
			c-0.673-0.003-0.92,0.187-0.916,0.888c0.027,4.46,0.025,8.921,0.002,13.381c-0.003,0.656,0.23,0.844,0.863,0.836
			C32.525,50.704,34.798,50.721,37.07,50.721z"/>
		<path class="st4" d="M76.424,41.153c-0.001-0.174-0.046-0.364,0.007-0.519c0.182-0.526-0.493-1.364,0.524-1.576
			c1.199-0.249,2.248,0.191,2.594,1.094c0.306,0.798,0.276,1.616-0.3,2.298c-0.636,0.752-1.526,0.929-2.46,0.829
			c-0.14-0.015-0.328-0.357-0.347-0.562C76.392,42.2,76.425,41.675,76.424,41.153z"/>
		<path class="st4" d="M51.543,41.151c0-0.435,0.035-0.873-0.007-1.304c-0.079-0.805,0.334-1.001,1.047-0.971
			c1.341,0.057,2.258,1.077,2.203,2.499c-0.049,1.259-1.027,2.126-2.305,2.088c-0.691-0.021-1.022-0.284-0.946-1.008
			C51.579,42.024,51.543,41.586,51.543,41.151z"/>
		<path class="st4" d="M114.993,44.54c-0.985,0-1.763,0-2.541,0c-0.286,0-0.572,0-1.015,0c0.597-1.397,1.143-2.673,1.787-4.18
			C113.847,41.832,114.382,43.097,114.993,44.54z"/>
		<path class="st4" d="M43.943,47.713c0,2.366,0,2.366-2.366,2.366c-2.309,0-2.309,0-2.309-2.337c0-2.182,0-2.182-2.234-2.182
			c-2.222,0-2.222,0-2.222,2.248c0,2.271,0,2.271-2.268,2.271c-2.398,0-2.398,0-2.398-2.345c0-2.421,0-2.421,2.422-2.42
			c2.179,0.001,2.179,0.001,2.179-2.15c0-2.119,0-2.119-2.126-2.119c-0.613,0-1.233,0.055-1.834-0.031
			c-0.235-0.034-0.596-0.374-0.607-0.59c-0.061-1.128-0.061-2.262,0.001-3.39c0.012-0.225,0.38-0.603,0.601-0.615
			c1.134-0.064,2.273-0.024,3.411-0.036c0.512-0.005,0.634,0.263,0.625,0.717c-0.019,0.986,0.012,1.972-0.011,2.958
			c-0.012,0.53,0.127,0.802,0.732,0.778c0.99-0.039,1.984-0.039,2.974,0c0.6,0.023,0.761-0.252,0.755-0.778
			c-0.012-0.957,0.015-1.914-0.004-2.871c-0.011-0.526,0.143-0.82,0.736-0.808c1.079,0.022,2.158,0.017,3.237,0.001
			c0.524-0.008,0.724,0.209,0.712,0.73c-0.024,1.072-0.033,2.147,0.003,3.219c0.02,0.599-0.248,0.739-0.787,0.724
			c-1.02-0.027-2.042,0.006-3.062-0.01c-0.51-0.008-0.746,0.171-0.731,0.709c0.026,0.956,0.028,1.914,0,2.871
			c-0.016,0.551,0.251,0.705,0.744,0.7c1.021-0.01,2.042,0.021,3.062-0.007c0.556-0.015,0.808,0.166,0.773,0.746
			C43.916,46.609,43.943,47.162,43.943,47.713z"/>
	</g>
	<g id="cM6Riv_1_">
		<g>
			<g>
				<path class="st3" d="M76.193,29.425c2.056-2.007,3.911-4.091,6.043-5.838c3.488-2.859,7.469-4.081,11.963-2.622
					c2.99,0.971,4.288,3.112,3.817,6.221c-0.617,4.076-2.468,7.627-4.836,10.91c-4.25,5.893-9.426,10.936-14.805,15.787
					c-0.722,0.651-1.176,0.618-1.952,0.072c-6.654-4.687-11.416-10.959-15.241-18.013c-1.851-3.413-2.504-7.061-1.82-10.913
					c1.015-5.714,8.166-8.899,12.313-5.413c2.599,2.184,3.936,5.127,4.396,8.469C76.132,28.534,76.154,28.989,76.193,29.425z"/>
				<path class="st3" d="M32.618,69.399c-0.18-0.422-0.329-0.861-0.551-1.26c-0.192-0.345-0.467-0.643-0.705-0.962
					c-0.331,0.249-0.751,0.438-0.969,0.763c-0.27,0.403-0.373,0.919-0.936,1.453c-0.086-0.356-0.304-0.741-0.235-1.065
					c0.413-1.925,0.866-3.843,1.373-5.745c0.095-0.358,0.494-0.635,0.753-0.949c0.258,0.326,0.683,0.623,0.746,0.983
					c0.382,2.174,0.681,4.362,1.007,6.545C32.94,69.242,32.779,69.32,32.618,69.399z"/>
				<path class="st3" d="M42.401,70.089c-0.29-0.769-0.531-1.563-0.893-2.297c-0.174-0.353-0.579-0.592-0.88-0.882
					c-0.241,0.321-0.564,0.611-0.705,0.971c-0.229,0.585-0.339,1.217-0.755,1.786c-0.39-2.732,0.762-5.274,0.834-7.972
					c1.493-0.099,1.532,0.994,1.71,1.791c0.241,1.082,0.243,2.215,0.436,3.31c0.188,1.066,0.487,2.113,0.737,3.168
					C42.724,70.005,42.562,70.047,42.401,70.089z"/>
				<path class="st3" d="M121.909,61.188c1.781,1.029,2.725,5.541,1.612,7.974c-0.182-0.94-0.364-1.881-0.556-2.87
					c-2.392-0.08-0.784,2.71-2.65,3.263C120.859,66.696,121.366,64.036,121.909,61.188z"/>
				<path class="st3" d="M56.289,69.298c-0.247-0.903-0.493-1.806-0.754-2.761c-2.644-0.729-1.254,2.042-2.578,2.903
					c0-0.849-0.088-1.503,0.017-2.124c0.261-1.544,0.583-3.08,0.942-4.605c0.092-0.391,0.413-0.729,0.628-1.092
					c0.347,0.318,0.911,0.582,1.005,0.961c0.536,2.166,0.96,4.36,1.422,6.544C56.744,69.183,56.516,69.24,56.289,69.298z"/>
				<path class="st3" d="M62.314,69.507c-0.085-0.447-0.23-0.893-0.245-1.342c-0.048-1.42,0.026-2.847-0.087-4.26
					c-0.096-1.189,0.35-2.083,1.44-2.24c0.532-0.077,1.451,0.548,1.722,1.091c0.457,0.913,0.721,2.037-0.366,2.869
					c-0.233,0.179-0.437,0.396-0.703,0.641c0.721,0.994,1.408,1.94,2.096,2.887c-0.145,0.116-0.29,0.232-0.435,0.347
					c-0.842-1.035-1.684-2.069-2.79-3.43c-0.068,1.347-0.119,2.354-0.17,3.362C62.621,69.457,62.468,69.482,62.314,69.507z
					 M63.388,65.078c1.446-0.515,1.612-1.352,0.64-2.749C63.03,62.955,62.999,63.078,63.388,65.078z"/>
				<path class="st3" d="M99.398,69.499c-0.333-1.078-0.666-2.156-1.008-3.265c-2.106,0.094-0.824,2.141-2.217,3.188
					c0.301-2.927,0.561-5.463,0.825-8.035C98.65,61.768,100.296,67.127,99.398,69.499z"/>
				<path class="st3" d="M48.96,61.7c0,1.155,0,2.311,0,3.472c1.41,0.399,1.942,0.055,1.895-1.218
					c-0.027-0.728,0.139-1.463,0.219-2.195c0.149,0.006,0.298,0.011,0.447,0.017c0,2.412,0,4.824,0,7.214
					c-0.541-0.209-0.541-0.209-0.911-2.757c-0.789-0.239-1.506-0.2-1.725,0.781c-0.161,0.72-0.124,1.485-0.179,2.283
					c-0.956-0.522-0.976-4.538-0.154-7.55C48.688,61.731,48.824,61.716,48.96,61.7z"/>
				<path class="st3" d="M35.733,66.304c0.865-0.226,1.488-0.389,2.238-0.584c-0.053,0.839,0.061,1.49-0.165,1.988
					c-0.296,0.652-0.747,1.472-1.334,1.699c-0.961,0.371-1.879-0.028-2.341-1.129c-0.757-1.804,0.201-5.485,1.843-6.532
					c0.499-0.318,1.217-0.294,1.729-0.404c-1.012,1.416-2.068,2.59-2.737,3.953c-0.349,0.71-0.095,1.766,0.049,2.639
					c0.053,0.32,0.547,0.723,0.895,0.786c0.234,0.042,0.73-0.405,0.805-0.709c0.08-0.321-0.173-0.743-0.332-1.098
					C36.314,66.755,36.119,66.655,35.733,66.304z"/>
				<path class="st3" d="M81.773,69.371c-1.073-2.017-0.815-6.443,0.491-8.025c1.544,1.002,2.234,2.455,2.112,4.234
					C84.258,67.305,83.415,68.628,81.773,69.371z M82.343,62.904c0,1.6,0,3.201,0,5.071C83.89,65.816,83.932,64.384,82.343,62.904z"
					/>
				<path class="st3" d="M111.004,69.408c-0.592-1.005-1.184-2.01-1.776-3.015c-0.138,0.03-0.277,0.061-0.415,0.091
					c-0.121,0.97-0.243,1.939-0.364,2.909c-0.083,0.036-0.166,0.071-0.25,0.107c-0.132-0.442-0.38-0.885-0.376-1.326
					c0.017-1.72-0.016-3.459,0.251-5.147c0.097-0.616,0.977-1.109,1.5-1.659c0.453,0.651,1.428,1.698,1.28,1.892
					c-1.67,2.194-0.143,4.085,0.524,6.057C111.254,69.347,111.129,69.377,111.004,69.408z M109.938,62.332
					c-0.207-0.066-0.414-0.132-0.621-0.199c-0.201,0.823-0.403,1.645-0.689,2.813C110.328,64.23,110.408,63.373,109.938,62.332z"/>
				<path class="st3" d="M67.146,61.491c0.157,2.289,0.314,4.578,0.47,6.868c0.165,0.002,0.331,0.003,0.496,0.005
					c1.031-2.032,1.052-4.241,0.861-6.487c0.123-0.035,0.246-0.07,0.369-0.104c0.191,0.489,0.572,0.991,0.538,1.464
					c-0.132,1.811-0.365,3.618-0.645,5.414c-0.045,0.287-0.592,0.763-0.781,0.71c-0.503-0.142-1.258-0.451-1.345-0.826
					c-0.536-2.29-0.871-4.619-0.578-6.965C66.736,61.542,66.941,61.517,67.146,61.491z"/>
				<path class="st3" d="M114.629,61.315c0.556,2.568,1.065,5.144,0.954,7.813c-0.13,0.032-0.261,0.063-0.391,0.095
					c-0.136-0.586-0.233-1.184-0.419-1.753c-0.137-0.42-0.39-0.802-0.591-1.201c-0.254,0.389-0.58,0.75-0.744,1.174
					c-0.22,0.569-0.315,1.186-0.464,1.782c-0.198-0.052-0.397-0.104-0.595-0.156c0.475-2.577,0.95-5.153,1.425-7.73
					C114.079,61.331,114.354,61.323,114.629,61.315z"/>
				<path class="st3" d="M116.835,69.501c0.094-2.949-0.519-5.571,0.669-8.415c1.451,1.283,2.5,2.508,2.329,4.259
					C119.667,67.053,118.82,68.443,116.835,69.501z M117.741,62.53c0,1.924,0,3.417,0,5.153
					C119.296,65.86,119.34,64.419,117.741,62.53z"/>
				<path class="st3" d="M104.868,66.179c0,1.066,0,2.022,0,2.978c-0.113,0.037-0.226,0.073-0.339,0.11
					c-0.162-0.348-0.456-0.692-0.464-1.044c-0.042-1.774-0.11-3.559,0.055-5.319c0.054-0.571,0.789-1.077,1.212-1.613
					c0.555,0.553,1.47,1.033,1.598,1.671C107.323,64.924,106.598,65.948,104.868,66.179z M106.465,61.967
					c-1.831,0.893-2.012,1.714-0.819,3.493C105.948,64.171,106.162,63.258,106.465,61.967z"/>
				<path class="st3" d="M88.326,61.8c-0.741,0.927-2.445,0.209-2.086,1.894c0.135,0.633,0.854,1.142,1.321,1.725
					c-0.71,0.214-1.583,0.678-1.361,2.103c0.277,1.777,1.859,0.375,2.54,1.131c-2.526,1.197-3.384,0.689-3.397-1.98
					c-0.008-1.714-0.002-3.427-0.002-5.339C86.583,61.528,87.454,61.664,88.326,61.8z"/>
				<path class="st3" d="M75.287,62.661c-0.855,0-1.478,0-2.147,0c0.077-0.22,0.093-0.373,0.138-0.381
					c0.96-0.185,1.923-0.355,2.885-0.527c-0.188,0.889-0.301,1.802-0.582,2.661c-0.419,1.282-0.957,2.526-1.567,4.105
					c1.182-0.108,2.011-0.184,2.84-0.26c-1.145,0.785-2.271,1.54-3.69,0.555C73.856,66.808,74.539,64.828,75.287,62.661z"/>
				<path class="st3" d="M42.645,62.228c1.46-0.249,2.921-0.497,4.381-0.746c0.099,0.183,0.198,0.367,0.297,0.55
					c-2.048-0.01-1.904,1.211-1.825,2.525c0.096,1.593,0.023,3.197,0.023,4.796c-0.178,0.042-0.357,0.084-0.535,0.126
					c-0.151-0.365-0.422-0.727-0.431-1.096c-0.026-1.06,0.082-2.123,0.084-3.185c0.003-1.328,0.359-2.959-2.261-2.363
					C42.467,62.632,42.556,62.43,42.645,62.228z"/>
				<path class="st3" d="M93.09,68.539c0.877,0.099,1.461,0.164,2.044,0.23c0.007,0.159,0.014,0.318,0.021,0.477
					c-0.649,0-1.358,0.159-1.926-0.055c-0.386-0.146-0.814-0.817-0.81-1.25c0.02-2.096,0.179-4.19,0.289-6.285
					c0.127-0.003,0.255-0.006,0.382-0.009C93.09,63.899,93.09,66.153,93.09,68.539z"/>
				<path class="st3" d="M71.236,69.018c0-2.45,0-4.899,0-7.469c0.941,0.597,1.06,4.681,0.4,7.435
					C71.503,68.996,71.37,69.007,71.236,69.018z"/>
			</g>
			<g>
				<path class="st3" d="M76.193,29.425c2.056-2.007,3.911-4.091,6.043-5.838c3.488-2.859,7.469-4.081,11.963-2.622
					c2.99,0.971,4.288,3.112,3.817,6.221c-0.617,4.076-2.468,7.627-4.836,10.91c-4.25,5.893-9.426,10.936-14.805,15.787
					c-0.722,0.651-1.176,0.618-1.952,0.072c-6.654-4.687-11.416-10.959-15.241-18.013c-1.851-3.413-2.504-7.061-1.82-10.913
					c1.015-5.714,8.166-8.899,12.313-5.413c2.599,2.184,3.936,5.127,4.396,8.469C76.132,28.534,76.154,28.989,76.193,29.425z"/>
				<path class="st3" d="M32.618,69.399c-0.18-0.422-0.329-0.861-0.551-1.26c-0.192-0.345-0.467-0.643-0.705-0.962
					c-0.331,0.249-0.751,0.438-0.969,0.763c-0.27,0.403-0.373,0.919-0.936,1.453c-0.086-0.356-0.304-0.741-0.235-1.065
					c0.413-1.925,0.866-3.843,1.373-5.745c0.095-0.358,0.494-0.635,0.753-0.949c0.258,0.326,0.683,0.623,0.746,0.983
					c0.382,2.174,0.681,4.362,1.007,6.545C32.94,69.242,32.779,69.32,32.618,69.399z"/>
				<path class="st3" d="M42.401,70.089c-0.29-0.769-0.531-1.563-0.893-2.297c-0.174-0.353-0.579-0.592-0.88-0.882
					c-0.241,0.321-0.564,0.611-0.705,0.971c-0.229,0.585-0.339,1.217-0.755,1.786c-0.39-2.732,0.762-5.274,0.834-7.972
					c1.493-0.099,1.532,0.994,1.71,1.791c0.241,1.082,0.243,2.215,0.436,3.31c0.188,1.066,0.487,2.113,0.737,3.168
					C42.724,70.005,42.562,70.047,42.401,70.089z"/>
				<path class="st3" d="M121.909,61.188c1.781,1.029,2.725,5.541,1.612,7.974c-0.182-0.94-0.364-1.881-0.556-2.87
					c-2.392-0.08-0.784,2.71-2.65,3.263C120.859,66.696,121.366,64.036,121.909,61.188z"/>
				<path class="st3" d="M56.289,69.298c-0.247-0.903-0.493-1.806-0.754-2.761c-2.644-0.729-1.254,2.042-2.578,2.903
					c0-0.849-0.088-1.503,0.017-2.124c0.261-1.544,0.583-3.08,0.942-4.605c0.092-0.391,0.413-0.729,0.628-1.092
					c0.347,0.318,0.911,0.582,1.005,0.961c0.536,2.166,0.96,4.36,1.422,6.544C56.744,69.183,56.516,69.24,56.289,69.298z"/>
				<path class="st3" d="M62.314,69.507c-0.085-0.447-0.23-0.893-0.245-1.342c-0.048-1.42,0.026-2.847-0.087-4.26
					c-0.096-1.189,0.35-2.083,1.44-2.24c0.532-0.077,1.451,0.548,1.722,1.091c0.457,0.913,0.721,2.037-0.366,2.869
					c-0.233,0.179-0.437,0.396-0.703,0.641c0.721,0.994,1.408,1.94,2.096,2.887c-0.145,0.116-0.29,0.232-0.435,0.347
					c-0.842-1.035-1.684-2.069-2.79-3.43c-0.068,1.347-0.119,2.354-0.17,3.362C62.621,69.457,62.468,69.482,62.314,69.507z
					 M63.388,65.078c1.446-0.515,1.612-1.352,0.64-2.749C63.03,62.955,62.999,63.078,63.388,65.078z"/>
				<path class="st3" d="M99.398,69.499c-0.333-1.078-0.666-2.156-1.008-3.265c-2.106,0.094-0.824,2.141-2.217,3.188
					c0.301-2.927,0.561-5.463,0.825-8.035C98.65,61.768,100.296,67.127,99.398,69.499z"/>
				<path class="st3" d="M48.96,61.7c0,1.155,0,2.311,0,3.472c1.41,0.399,1.942,0.055,1.895-1.218
					c-0.027-0.728,0.139-1.463,0.219-2.195c0.149,0.006,0.298,0.011,0.447,0.017c0,2.412,0,4.824,0,7.214
					c-0.541-0.209-0.541-0.209-0.911-2.757c-0.789-0.239-1.506-0.2-1.725,0.781c-0.161,0.72-0.124,1.485-0.179,2.283
					c-0.956-0.522-0.976-4.538-0.154-7.55C48.688,61.731,48.824,61.716,48.96,61.7z"/>
				<path class="st3" d="M35.733,66.304c0.865-0.226,1.488-0.389,2.238-0.584c-0.053,0.839,0.061,1.49-0.165,1.988
					c-0.296,0.652-0.747,1.472-1.334,1.699c-0.961,0.371-1.879-0.028-2.341-1.129c-0.757-1.804,0.201-5.485,1.843-6.532
					c0.499-0.318,1.217-0.294,1.729-0.404c-1.012,1.416-2.068,2.59-2.737,3.953c-0.349,0.71-0.095,1.766,0.049,2.639
					c0.053,0.32,0.547,0.723,0.895,0.786c0.234,0.042,0.73-0.405,0.805-0.709c0.08-0.321-0.173-0.743-0.332-1.098
					C36.314,66.755,36.119,66.655,35.733,66.304z"/>
				<path class="st3" d="M81.773,69.371c-1.073-2.017-0.815-6.443,0.491-8.025c1.544,1.002,2.234,2.455,2.112,4.234
					C84.258,67.305,83.415,68.628,81.773,69.371z M82.343,62.904c0,1.6,0,3.201,0,5.071C83.89,65.816,83.932,64.384,82.343,62.904z"
					/>
				<path class="st3" d="M111.004,69.408c-0.592-1.005-1.184-2.01-1.776-3.015c-0.138,0.03-0.277,0.061-0.415,0.091
					c-0.121,0.97-0.243,1.939-0.364,2.909c-0.083,0.036-0.166,0.071-0.25,0.107c-0.132-0.442-0.38-0.885-0.376-1.326
					c0.017-1.72-0.016-3.459,0.251-5.147c0.097-0.616,0.977-1.109,1.5-1.659c0.453,0.651,1.428,1.698,1.28,1.892
					c-1.67,2.194-0.143,4.085,0.524,6.057C111.254,69.347,111.129,69.377,111.004,69.408z M109.938,62.332
					c-0.207-0.066-0.414-0.132-0.621-0.199c-0.201,0.823-0.403,1.645-0.689,2.813C110.328,64.23,110.408,63.373,109.938,62.332z"/>
				<path class="st3" d="M67.146,61.491c0.157,2.289,0.314,4.578,0.47,6.868c0.165,0.002,0.331,0.003,0.496,0.005
					c1.031-2.032,1.052-4.241,0.861-6.487c0.123-0.035,0.246-0.07,0.369-0.104c0.191,0.489,0.572,0.991,0.538,1.464
					c-0.132,1.811-0.365,3.618-0.645,5.414c-0.045,0.287-0.592,0.763-0.781,0.71c-0.503-0.142-1.258-0.451-1.345-0.826
					c-0.536-2.29-0.871-4.619-0.578-6.965C66.736,61.542,66.941,61.517,67.146,61.491z"/>
				<path class="st3" d="M114.629,61.315c0.556,2.568,1.065,5.144,0.954,7.813c-0.13,0.032-0.261,0.063-0.391,0.095
					c-0.136-0.586-0.233-1.184-0.419-1.753c-0.137-0.42-0.39-0.802-0.591-1.201c-0.254,0.389-0.58,0.75-0.744,1.174
					c-0.22,0.569-0.315,1.186-0.464,1.782c-0.198-0.052-0.397-0.104-0.595-0.156c0.475-2.577,0.95-5.153,1.425-7.73
					C114.079,61.331,114.354,61.323,114.629,61.315z"/>
				<path class="st3" d="M116.835,69.501c0.094-2.949-0.519-5.571,0.669-8.415c1.451,1.283,2.5,2.508,2.329,4.259
					C119.667,67.053,118.82,68.443,116.835,69.501z M117.741,62.53c0,1.924,0,3.417,0,5.153
					C119.296,65.86,119.34,64.419,117.741,62.53z"/>
				<path class="st3" d="M104.868,66.179c0,1.066,0,2.022,0,2.978c-0.113,0.037-0.226,0.073-0.339,0.11
					c-0.162-0.348-0.456-0.692-0.464-1.044c-0.042-1.774-0.11-3.559,0.055-5.319c0.054-0.571,0.789-1.077,1.212-1.613
					c0.555,0.553,1.47,1.033,1.598,1.671C107.323,64.924,106.598,65.948,104.868,66.179z M106.465,61.967
					c-1.831,0.893-2.012,1.714-0.819,3.493C105.948,64.171,106.162,63.258,106.465,61.967z"/>
				<path class="st3" d="M88.326,61.8c-0.741,0.927-2.445,0.209-2.086,1.894c0.135,0.633,0.854,1.142,1.321,1.725
					c-0.71,0.214-1.583,0.678-1.361,2.103c0.277,1.777,1.859,0.375,2.54,1.131c-2.526,1.197-3.384,0.689-3.397-1.98
					c-0.008-1.714-0.002-3.427-0.002-5.339C86.583,61.528,87.454,61.664,88.326,61.8z"/>
				<path class="st3" d="M75.287,62.661c-0.855,0-1.478,0-2.147,0c0.077-0.22,0.093-0.373,0.138-0.381
					c0.96-0.185,1.923-0.355,2.885-0.527c-0.188,0.889-0.301,1.802-0.582,2.661c-0.419,1.282-0.957,2.526-1.567,4.105
					c1.182-0.108,2.011-0.184,2.84-0.26c-1.145,0.785-2.271,1.54-3.69,0.555C73.856,66.808,74.539,64.828,75.287,62.661z"/>
				<path class="st3" d="M42.645,62.228c1.46-0.249,2.921-0.497,4.381-0.746c0.099,0.183,0.198,0.367,0.297,0.55
					c-2.048-0.01-1.904,1.211-1.825,2.525c0.096,1.593,0.023,3.197,0.023,4.796c-0.178,0.042-0.357,0.084-0.535,0.126
					c-0.151-0.365-0.422-0.727-0.431-1.096c-0.026-1.06,0.082-2.123,0.084-3.185c0.003-1.328,0.359-2.959-2.261-2.363
					C42.467,62.632,42.556,62.43,42.645,62.228z"/>
				<path class="st3" d="M93.09,68.539c0.877,0.099,1.461,0.164,2.044,0.23c0.007,0.159,0.014,0.318,0.021,0.477
					c-0.649,0-1.358,0.159-1.926-0.055c-0.386-0.146-0.814-0.817-0.81-1.25c0.02-2.096,0.179-4.19,0.289-6.285
					c0.127-0.003,0.255-0.006,0.382-0.009C93.09,63.899,93.09,66.153,93.09,68.539z"/>
				<path class="st3" d="M71.236,69.018c0-2.45,0-4.899,0-7.469c0.941,0.597,1.06,4.681,0.4,7.435
					C71.503,68.996,71.37,69.007,71.236,69.018z"/>
			</g>
		</g>
	</g>
</g>
</svg>
