<svg id="Capa_1" data-name="Capa 1" xmlns="http://www.w3.org/2000/svg" viewBox="0 0 155 87"><title>hochburg_logos_its</title><rect width="155" height="87" style="fill:none"/><path d="M43.152,57.645c-.581-.048-1.167-.067-1.744-.149-1.905-.271-2.4-.807-1.856-2.666.737-2.508.4-4.952.083-7.438a20.164,20.164,0,0,1,.647-8.9,21.524,21.524,0,0,0,1.262-7.918c-.034-.608.2-.761.665-.783a12.921,12.921,0,0,1,1.877,0c1.312.128.832,1.435.761,1.85-.357,2.1.3,3.978.923,5.866a25.347,25.347,0,0,1,.643,11.987,10.932,10.932,0,0,0,.17,4.595c.747,2.731.285,3.35-2.551,3.506-.291.017-.584,0-.877,0Z" style="fill:#b1b1b1"/><path d="M89.2,31.1a5.794,5.794,0,0,1,.78.24c.169.075.472.166.384.4-.145.388-.4.092-.584,0a1.212,1.212,0,0,0-1.659.352,1.355,1.355,0,0,0,.01,1.729,1.238,1.238,0,0,0,1.669.324c.184-.09.43-.405.573-.005.08.222-.211.323-.384.408a1.8,1.8,0,0,1-2.5-2.317A1.861,1.861,0,0,1,89.2,31.1Z" style="fill:#b1b1b1"/><path d="M79.479,44.6c-.12-.047-.571.275-.666-.21-.111-.564,1.078-1.519,1.826-1.471.264.016.89-.167.707.3C81.068,43.929,80.794,44.9,79.479,44.6Z" style="fill:#b1b1b1"/><path d="M48.743,32.974c0-1.783.457-2.158,2.143-1.755.114.027.307.1.309.151.005.2-.179.227-.336.231-.332.011-.666.025-1,0-.494-.03-.653.2-.644.67.011.494.322.5.673.494a3.921,3.921,0,0,1,.623.008c.169.024.476-.1.456.216-.017.275-.31.229-.495.219-.757-.04-1.461-.052-1.259,1.054.03.165-.049.345-.268.326s-.2-.22-.2-.372C48.736,33.805,48.742,33.39,48.743,32.974Z" style="fill:#b1b1b1"/><path d="M64.587,31.811c.093.081.189.158.277.244.484.478.731,1.177,1.387,1.5.025-.61.04-1.22.081-1.828.01-.142.094-.389.167-.4.277-.034.309.2.31.414,0,.789,0,1.577,0,2.366,0,.206.042.452-.217.511-.231.053-.358-.159-.486-.317q-.9-1.11-1.8-2.221A.324.324,0,0,1,64.587,31.811Z" style="fill:#b1b1b1"/><path d="M111,34.038c-.4-.469-.8-.94-1.213-1.4-.124-.141-.195-.447-.436-.318-.1.056-.069.362-.105.553-.105.563.253,1.193-.244,1.7-.5-.522-.192-1.161-.219-1.739-.023-.508-.282-1.288.214-1.48.563-.218.759.608,1.107.979.425.452.787.962,1.177,1.447A.315.315,0,0,1,111,34.038Z" style="fill:#b1b1b1"/><path d="M55.971,32.607a2.758,2.758,0,0,1,0-.375c.044-.312-.135-.871.2-.868.352,0,.169.554.2.865.092.849-.321,2.095,1.117,2.047,1.337-.045.865-1.25.975-2.047.044-.311-.141-.862.211-.865s.158.545.207.849a2.234,2.234,0,0,1,0,.375c-.005,1.537-.417,2.152-1.448,2.16S55.977,34.125,55.971,32.607Z" style="fill:#b1b1b1"/><path d="M95.111,32.96c.272-.575-.27-1.5.338-1.538.442-.03.192.987.191,1.521s.172,1.6-.163,1.529C94.747,34.316,95.49,33.416,95.111,32.96Z" style="fill:#b1b1b1"/><path d="M111,34.038l.281-.263c.207-.2.093-.465.133-.7.1-.577-.257-1.209.212-1.738.294.54.087,1.124.14,1.686a5.182,5.182,0,0,1,0,.863c-.016.228.124.567-.169.649C111.249,34.635,111.157,34.261,111,34.038Z" style="fill:#b1b1b1"/><path d="M64.587,31.811l-.287.268c-.037.239-.065.48-.112.717-.116.58.274,1.226-.231,1.754-.363-.579-.093-1.216-.163-1.822a3.836,3.836,0,0,1,0-.75c.019-.23-.123-.559.186-.653C64.349,31.214,64.443,31.573,64.587,31.811Z" style="fill:#b1b1b1"/><path d="M111.282,38.844l-.037-.311c.057-.21.244-.423.377-.231S111.527,38.737,111.282,38.844Z" style="fill:#b1b1b1"/><path d="M74.863,56.393h0a9.666,9.666,0,0,0-6.854-2.573,29.052,29.052,0,0,0-4.952.69,50.162,50.162,0,0,1-7.107,1.45c-3.387.222-5.082-1.7-4.25-4.976a19.8,19.8,0,0,1,8.141-11.341,3.879,3.879,0,0,1,1.734-.682c.354-.05.688-.019.85.349.223.507-.222.533-.513.64a1.429,1.429,0,0,0-.759.625c-.207.359-.436.792-.054,1.148.45.418.88.117,1.19-.229a2.318,2.318,0,0,0,.737-2.6c-.449-.983-1.383-.942-2.283-.818a4.174,4.174,0,0,0-1.093.253c-5.615,2.465-9.5,6.5-10.752,12.6-.859,4.192,1.79,6.734,6.016,6.027,2.425-.407,4.813-1.035,7.235-1.471a8.011,8.011,0,0,1,4.565.31c.712.294,1.166,1.056,1.776,1.3.667.266,1.179-.825,1.993-.933a9.788,9.788,0,0,1,4.064.515l.316-.276Z" style="fill:#b1b1b1"/><path d="M74.863,56.393h0l-.316.276c.282.232.792.611.912.412C75.673,56.727,75.138,56.579,74.863,56.393Z" style="fill:#b1b1b1"/><path d="M77.812,43.725c.383-.612.381-.889-.435-.809-.525.052-1.159.282-1.557.074-1.078-.565-1.869-.052-2.652.49A15.8,15.8,0,0,0,69.812,47a15.332,15.332,0,0,1-3.353,3.524c-.486.331-1.039.671-1.607.217-.51-.407-.369-1.012-.19-1.513a10.844,10.844,0,0,1,3.52-5.073c.375-.291.938-.813,1.3-.293.473.687-.57.418-.731.786-.047.108-.182.175-.247.279-.242.389-.572.816-.052,1.2.452.334.813-.018,1.062-.341.564-.734,1.2-1.56.545-2.483s-1.621-.644-2.488-.225a5.394,5.394,0,0,0-1.047.679c-.809.659-1.578,1.367-2.4,2.012-.282.222-.847.528-.966.426-.335-.285.092-.656.161-1,.156-.782.433-1.609-.328-2.206a1.867,1.867,0,0,0-2.232.108,11.465,11.465,0,0,0-5.306,6.7,1.927,1.927,0,0,0,.53,2.285c.77.58,1.516.216,2.21-.207a11.6,11.6,0,0,0,3.7-3.852c.217-.342.352-.785.779-.943.168-.062.4-.242.556-.016.055.082-.05.3-.119.434a8.347,8.347,0,0,0-.871,2.2,2.117,2.117,0,0,0,.618,2.281,2.178,2.178,0,0,0,2.369.133,8.448,8.448,0,0,0,2.174-1.461c.187-.162.471-.474.572-.426.272.129.034.42.024.647-.066,1.256.631,1.788,1.812,1.323a9.611,9.611,0,0,0,1.275-.774c.16-.095.379-.508.519-.025.458,1.578,1.4.968,2.22.459a14.8,14.8,0,0,0,3.658-3.742c.11-.14.344-.336.057-.492-.192-.105-.4.033-.549.194-.684.73-1.355,1.475-2.062,2.183-.214.214-.527.578-.844.254-.209-.214.078-.529.221-.765C75.46,47.568,76.617,45.635,77.812,43.725ZM61.077,48.054a6.238,6.238,0,0,1-2.021,2.167c-.636.377-1.249.266-1.159-.586a7.578,7.578,0,0,1,1.819-3.625.955.955,0,0,1,.231-.156c.423.514,1.091.733,1.547,1.17C61.855,47.369,61.278,47.734,61.077,48.054Zm.662-1.767a1.065,1.065,0,0,1-1.093-1.143,1.575,1.575,0,0,1,1.433-1.5c.6-.087.7.451.714,1.017C62.459,45.18,62.737,46.237,61.739,46.287Zm10.413,3.176a5.728,5.728,0,0,1-.782.806c-.181.157-.413.318-.677.173-.34-.188-.245-.479-.154-.768a8.785,8.785,0,0,1,1.425-2.626,14.261,14.261,0,0,1,2.687-3.115c.22-.165.49-.362.8-.164.079.051.1.188.139.259-.087.157-.144.268-.209.375A50.109,50.109,0,0,1,72.152,49.463Z" style="fill:#b1b1b1"/><path d="M93.454,39.476a.788.788,0,0,1,.035-.091A.6.6,0,0,0,93.454,39.476Z" style="fill:#b1b1b1"/><path d="M92.905,40.564l.007-.008-.012,0Z" style="fill:#b1b1b1"/><path d="M92.24,38.9c.039.021-.043.269-.069.412l.289.338h0c.852-.043.292.6.44.9l.012,0c.586-.55,0-1.411.523-1.979h0c-1.71-.876-3.319-.43-4.879.406A22.855,22.855,0,0,0,78.167,50.758a6.948,6.948,0,0,0-.53,3.189,3.03,3.03,0,0,0,4.176,2.921c2.789-.81,5.825-4.491,6.091-7.385C88.069,47.7,87.1,47,85.432,47.738c-2.124.944-2.951,2.835-3.5,4.91a1.285,1.285,0,0,0,.051.456,1.936,1.936,0,0,0,.422-.227c.981-.9,2.423-1.354,2.669-2.952a2.213,2.213,0,0,1,.718-1c.32-.322.72-.667,1.209-.374.437.262.321.739.228,1.141a8.49,8.49,0,0,1-4.113,5.582c-1.42.836-2.721.015-2.745-1.629a6.108,6.108,0,0,1,.209-1.478A20.308,20.308,0,0,1,85.5,43.557,14.507,14.507,0,0,1,91.4,39.036.692.692,0,0,1,92.24,38.9Z" style="fill:#b1b1b1"/><path d="M111.245,38.533a10.181,10.181,0,0,1-3.955,2.318h0a4.7,4.7,0,0,1-2.487.536,1.859,1.859,0,0,0-1.687,1.516c-.085.381.96.15,1.494.2.2.02.41,0,.615.005a10.123,10.123,0,0,0,6.057-4.268c.022,0,.039-.037.053-.112A.2.2,0,0,0,111.245,38.533Z" style="fill:#b1b1b1"/><path d="M106.839,40.613l-.359.192A.309.309,0,0,0,106.839,40.613Z" style="fill:#b1b1b1"/><path d="M106.839,40.613l-.359.192A.309.309,0,0,0,106.839,40.613Z" style="fill:#b1b1b1"/><path d="M107.291,52.185c-.239-.163-.451.07-.618.272-.584.707-1.159,1.423-1.771,2.106-.272.3-.713.777-1.024.549-.427-.314.1-.736.287-1.059,1.051-1.8,2.14-3.579,3.2-5.375.163-.276.551-.569.374-.87-.2-.349-.693-.053-1.023-.17-.486-.172-.876.487-1.237.228-1.345-.968-2.3-.083-3.231.65a21.728,21.728,0,0,0-4.033,4.919,7.283,7.283,0,0,1-1.37,1.618c-.486.384-.934.364-.883-.352.1-1.392.393-2.945,1.476-3.743a49.609,49.609,0,0,0,7.5-7.135c.3-.494.015-.589-.388-.511a2.009,2.009,0,0,0-1.066.826,46.059,46.059,0,0,1-4.419,4.428c-.115.1-.219.256-.414.228a1.407,1.407,0,0,0,.222-.3,40.415,40.415,0,0,1,3.586-5.28,13.874,13.874,0,0,1,3.022-3.149c.2-.125.388-.425.633-.278.181.11-.009.384-.024.586a.581.581,0,0,0,.144.459.485.485,0,0,0,.492-.017,1.55,1.55,0,0,0,.259-.218,5.8,5.8,0,0,0,.19-.591c.108-.507.537-1.061.014-1.517-.507-.441-1.1-.222-1.647.024a10.79,10.79,0,0,0-2.741,1.956A33.612,33.612,0,0,0,95.3,50.4c-.247.491-.546,1.2-1.116.936-.6-.279.129-.8.2-1.226.132-.849.639-1.771-.23-2.442-.843-.65-1.7-.139-2.426.343a11.751,11.751,0,0,0-4.6,5.623,6,6,0,0,0-.418,1.69c-.108,1.432.848,2.095,2.159,1.545A6.609,6.609,0,0,0,90.632,55.7a10.75,10.75,0,0,0,2.442-2.992c.273-.508.728-.885,1.172-.691.532.232-.075.692-.1,1.064a8.956,8.956,0,0,1-.271.959c-.2,1-.7,2.155.447,2.836,1.105.652,1.833-.343,2.6-.949a1.055,1.055,0,0,0,.089-.088c.351-.379.554-.619.672.193.145,1,.871,1.277,1.769.878a8,8,0,0,0,1.362-.875c.252-.18.39-.273.5.133.352,1.346,1.22,1.018,2.034.543a13.064,13.064,0,0,0,3.808-3.924C107.27,52.618,107.617,52.408,107.291,52.185Zm-.452-11.572a.309.309,0,0,1-.359.192ZM92.286,52.8a6.782,6.782,0,0,1-1.925,2.115.86.86,0,0,1-.93.167c-.36-.193-.323-.546-.282-.975a9.048,9.048,0,0,1,1.712-3.21c.067-.09.236-.225.259-.208a12.8,12.8,0,0,1,1.446,1.158C92.955,52.237,92.458,52.52,92.286,52.8Zm.43-1.672a1.244,1.244,0,0,1-.662-1.854,1.474,1.474,0,0,1,1.376-.915c.479.028.538.437.555,1a2.741,2.741,0,0,1-.285.9C93.453,50.612,93.587,51.554,92.716,51.125ZM101.43,54.6a1.281,1.281,0,0,1-.862.557c-.464.011-.492-.352-.377-.678a12.66,12.66,0,0,1,4.149-5.83.612.612,0,0,1,.7-.11c.259.151.141.34.027.523A41.686,41.686,0,0,1,101.43,54.6Z" style="fill:#b1b1b1"/><path d="M106.839,40.613l-.359.192A.309.309,0,0,0,106.839,40.613Z" style="fill:#b1b1b1"/><path d="M94.6,39.116h0a15.049,15.049,0,0,1,4.942,2.619c1.2.83,1.656-.228,2.043-.813.459-.693-.533-.668-.871-.91a15.851,15.851,0,0,0-2.281-1.3,5.6,5.6,0,0,0-4.83-.188,3.656,3.656,0,0,1,1.238.336C95.127,39.072,94.682,39.022,94.6,39.116Z" style="fill:#b1b1b1"/><path d="M94.836,38.864a3.656,3.656,0,0,0-1.238-.336.106.106,0,0,0-.163.049h0c-.52.568.063,1.429-.523,1.979l-.007.008a8.1,8.1,0,0,1-2.816,4.163c-.364.267-.821.631-1.245.317-.494-.365-.218-.912-.012-1.364a10.564,10.564,0,0,1,3.628-4.029l-.289-.338-.123.008-.124-.011a9.369,9.369,0,0,0-3.871,4.754,1.278,1.278,0,0,0,.288,1.494,1.348,1.348,0,0,0,1.424.072c1.933-.718,3.935-4.055,3.689-6.153h0a.6.6,0,0,1,.035-.091c.154-.375.511-.292.832-.295l-.127.056a.365.365,0,0,0,.127-.057l.274.027h0C94.682,39.022,95.127,39.072,94.836,38.864Z" style="fill:#b1b1b1"/><path d="M92.171,39.313c.026-.143.108-.391.069-.412a.692.692,0,0,0-.844.135c.18.085.436.021.528.274l.124.011Z" style="fill:#b1b1b1"/><path d="M93.489,39.385a.788.788,0,0,0-.035.091h0l.74-.331.127-.056C94,39.093,93.643,39.01,93.489,39.385Z" style="fill:#b1b1b1"/><path d="M72.7,31.2c-1.544-.118-.876,1-1.07,1.7.314.6-.653,1.875,1.022,1.8,1.321-.06,2.135-.666,2.152-1.728S74.008,31.3,72.7,31.2Zm.06,3.066c-1.309-.129-.4-1.162-.592-1.751-.141-.43-.193-1.1.432-.948,1.1.085,1.726.464,1.731,1.365A1.274,1.274,0,0,1,72.758,34.265Z" style="fill:#b1b1b1"/><path d="M82.659,34.2q-.6-1.3-1.2-2.59c-.234-.5-.525-.521-.769-.033-.444.887-.85,1.793-1.266,2.693-.075.163-.062.312.188.362.075-.069.168-.145.25-.232.813-.864,1.5-.852,2.445.04.083.078.227.2.288.172C82.8,34.529,82.73,34.354,82.659,34.2Zm-1.787-.864c-.233.036-.542.007-.368-.384.156-.351.34-.69.584-1.178a4.552,4.552,0,0,1,.528,1.256C81.649,33.574,81.142,33.3,80.872,33.338Z" style="fill:#b1b1b1"/><polygon points="101.773 31.579 101.776 31.588 101.781 31.585 101.773 31.579" style="fill:#b1b1b1"/><path d="M100.7,33.822c-.03-.058-.057-.114-.082-.17A.657.657,0,0,0,100.7,33.822Z" style="fill:#b1b1b1"/><path d="M104.009,32.859a1.523,1.523,0,0,0-1.516-1.63l-.028.309a1.435,1.435,0,0,1,1.056,1.717,1.19,1.19,0,0,1-.959,1.016,1.337,1.337,0,0,1-1.638-.965l-.222.516a1.764,1.764,0,0,0,3.307-.963Z" style="fill:#b1b1b1"/><path d="M100.922,33.243a1.67,1.67,0,0,1,.854-1.655l0-.009-.3-.246a1.634,1.634,0,0,0-.85,2.319c.025.056.052.112.082.17l.222-.516C100.922,33.285,100.923,33.265,100.922,33.243Z" style="fill:#b1b1b1"/><path d="M102.38,31.538h.085l.028-.309c-.38-.409.731-.658.185-.89-.5-.213-.307.618-.652.808a.457.457,0,0,0-.088.083l.025.31Z" style="fill:#b1b1b1"/><path d="M101.781,31.585a.171.171,0,0,0,.13-.015.2.2,0,0,0,.052-.03l-.025-.31-.468.1.3.246Z" style="fill:#b1b1b1"/></svg>