<svg id="Capa_1" data-name="Capa 1" xmlns="http://www.w3.org/2000/svg" viewBox="0 0 155 87"><title>hochburg_logos_breuniger</title><rect width="155" height="87" style="fill:none"/><path d="M53.085,58.683l2.323-.229c.054-.005.107-.019.161-.021.541-.013.473-.02.481-.535.005-.289,0-.578-.007-.866-.005-.18.043-.273.248-.3.981-.129,1.96-.275,2.939-.418.48-.07.958-.147,1.452-.223V54.025c-1.538.058-3.037.428-4.6.537,0-.485-.005-.978.009-1.471,0-.048.118-.122.19-.135q1.407-.252,2.816-.487c.646-.109,1.293-.213,1.986-.326v-2.58c.2.049.331.077.464.117.68.2,1.36.4,2.039.612.095.029.257.1.254.139a.525.525,0,0,1-.142.32A5.241,5.241,0,0,0,62.283,52.9,3.194,3.194,0,0,0,64.3,57.019a2.616,2.616,0,0,0,1.424.1c1.366-.182,2.733-.348,4.1-.532,1.65-.222,3.3-.456,4.948-.685.1-.014.2-.024.3-.036a3.164,3.164,0,0,0,2.308-1.85,3.068,3.068,0,0,0-.574-3.836,6.408,6.408,0,0,0-3.186-1.884,8.45,8.45,0,0,1-1.4-.519l2.087-.4a2.524,2.524,0,0,1,1.841.343c.269.163.521.357.8.51.895.5,1.8.981,2.7,1.485.853.481,1.7.98,2.607,1.508l-4.516,4.2c.017.036.034.073.05.109.171-.011.344-.013.513-.036,1.266-.173,2.531-.355,3.8-.523a1.411,1.411,0,0,0,.859-.384c.593-.58,1.218-1.127,1.821-1.7a.282.282,0,0,1,.376-.064c.7.377,1.408.727,2.085,1.135a1.451,1.451,0,0,0,1.043.191c1.361-.209,2.725-.4,4.087-.595.08-.012.158-.034.29-.062l-5.03-3.144c.3-.279.59-.545.878-.809Q91.3,46.968,94.1,44.4a.3.3,0,0,1,.355-.076q2.979,1.023,5.965,2.029a.387.387,0,0,1,.257.336c.31,1.264.614,2.53.926,3.793q.181.732.393,1.456a2.455,2.455,0,0,0,.236.51.406.406,0,0,0,.553.188.462.462,0,0,0,.329-.523c-.174-1.657-.353-3.314-.524-4.971-.154-1.5-.3-2.994-.45-4.491s-.32-2.992-.474-4.488c-.171-1.667-.331-3.335-.5-5-.153-1.487-.317-2.973-.47-4.461-.135-1.317-.259-2.635-.394-3.953s-.281-2.634-.416-3.952c-.129-1.252-.252-2.5-.379-3.774h13.34V64.782l-8.03-.495c-.006-.136-.015-.231-.015-.327q0-3.372,0-6.743a1.281,1.281,0,0,0-1.256-1.338,1.518,1.518,0,0,0-1.758,1.475c-.6-.21-1.207-.409-1.8-.63-1.415-.524-2.834-1.038-4.235-1.6a4.956,4.956,0,0,0-2.677-.207c-1.076.167-2.16.282-3.24.419-1.223.156-2.446.316-3.67.468-1.1.137-2.2.265-3.3.4q-1.689.206-3.379.413-1.608.2-3.217.4c-1.072.133-2.145.262-3.217.4q-1.85.233-3.7.47-1.822.232-3.644.465-1.608.2-3.215.4c-1.089.138-2.177.286-3.268.415-1.342.159-2.688.282-4.027.458a16.577,16.577,0,0,0-3,.518,4.306,4.306,0,0,0-3.107,3.329,3.556,3.556,0,0,0,.845,2.947c.183.231.416.423.619.639.056.06.13.159.113.214s-.13.118-.208.129c-.81.118-1.621.227-2.433.338l-.7.1c-.007-.1-.02-.193-.021-.286q-.017-3.791-.031-7.581c0-.435-.116-.615-.535-.7a3.1,3.1,0,0,0-1.62.009c-.406.129-.529.274-.529.7q0,3.954,0,7.907v.346l-7.864.948V17.015H47.4c0,.358.01.714,0,1.07q-.062,1.837-.135,3.675-.131,3.284-.265,6.568-.134,3.338-.266,6.676c-.062,1.622-.112,3.245-.175,4.867q-.155,3.974-.318,7.947-.12,2.973-.24,5.946a.55.55,0,0,0,.6.543.746.746,0,0,0,.612-.57q.872-4.689,1.743-9.379c.533-2.853,1.076-5.7,1.609-8.557s1.054-5.709,1.587-8.562,1.073-5.7,1.609-8.554c.093-.494.2-.988.27-1.485.026-.172.1-.2.246-.2.515,0,1.029,0,1.544,0q18.648,0,37.3-.006c.253,0,.354.067.413.315.584,2.464,1.18,4.924,1.772,7.386a.676.676,0,0,1,0,.118c-.364-.142-.711-.275-1.055-.413-1.025-.411-2.049-.825-3.076-1.232a.6.6,0,0,0-.335-.049c-.418.1-.833.22-1.243.351a.282.282,0,0,0-.129.218c-.024.685-.035,1.37-.049,2.056,0,.09,0,.18,0,.313-.692-.274-1.358-.535-2.023-.8-2.375-.955-4.739-1.939-7.129-2.854a16.642,16.642,0,0,0-2.749-.748,8.1,8.1,0,0,0-4.175.391,10.36,10.36,0,0,0-4.223,2.687,10.6,10.6,0,0,0-2.095,2.809c-.462-.216-.915-.426-1.366-.64a13.177,13.177,0,0,0-3.21-1.163,7.508,7.508,0,0,0-7.327,2.587,8.408,8.408,0,0,0-1.8,3.551c-.161.583-.106.635.472.5,1.049-.247,2.093-.515,3.134-.792a.46.46,0,0,0,.241-.273,3.557,3.557,0,0,1,1.577-1.987,2.806,2.806,0,0,1,2.192-.265,1.162,1.162,0,0,1,.711,1.653,5.991,5.991,0,0,1-.819,1.166q-3.3,3.8-6.623,7.576c-.314.359-.6.74-.9,1.112a.269.269,0,0,0-.068.142c0,.395,0,.79,0,1.217.44-.1.886-.192,1.329-.3l9.555-2.213c.4-.093.8-.186,1.209-.275.136-.03.224-.085.224-.244,0-.7,0-1.4,0-2.149l-5.589,1.215a2.416,2.416,0,0,1,.245-.444q1.306-1.461,2.629-2.908a14.237,14.237,0,0,0,1.935-2.46,4.348,4.348,0,0,0,.112-4.473c-.1-.188-.235-.357-.383-.58.362.178.694.338,1.023.505.345.174.684.362,1.034.528.14.067.179.129.136.288a12.254,12.254,0,0,0-.422,1.751,6.418,6.418,0,0,0,2.831,6.5,5.9,5.9,0,0,0,2.6.822,5.592,5.592,0,0,0,1.614-.249q2.482-.572,4.954-1.187a1.8,1.8,0,0,0,.614-.314,10.406,10.406,0,0,0,3.79-5.005,8.009,8.009,0,0,0,.14-4.99,4.193,4.193,0,0,0-1.381-2.02.228.228,0,0,1-.088-.134l1.841.742q2.986,1.206,5.973,2.408a.321.321,0,0,1,.235.357c0,2.03.015,4.061.025,6.091,0,.053,0,.106.008.192l1.461-.367c0-1.165.005-2.311,0-3.456a.7.7,0,0,1,.424-.633.5.5,0,0,1,.559.035.659.659,0,0,1,.282.607c.009.27,0,.541,0,.812q0,1.056,0,2.112v.327c.453-.123.869-.229,1.278-.355a.26.26,0,0,0,.11-.206,22.737,22.737,0,0,0-.162-4.074.362.362,0,0,1,.015-.088c.412.151.819.3,1.224.448.522.194,1.042.4,1.566.585a.4.4,0,0,1,.288.31c.422,1.6.855,3.191,1.285,4.786a.387.387,0,0,1,.026.132c-.008.084,0,.2-.052.241a.27.27,0,0,1-.237.008c-.63-.265-1.274-.5-1.877-.821a3.12,3.12,0,0,0-2.289-.2q-8.758,2.064-17.527,4.085c-3.264.755-6.533,1.487-9.8,2.237q-4.477,1.029-8.95,2.079c-1.626.38-3.249.773-4.876,1.152-.168.039-.259.1-.262.278,0,.071-.025.142-.029.214-.033.628-.032.625.549.876.18.078.351.173.494.244-.238.463-.495.885-.678,1.336a2.481,2.481,0,0,0,.747,2.692.541.541,0,0,0,.525.108q1.354-.235,2.708-.487a1.289,1.289,0,0,0,.68-.812.21.21,0,0,0-.11-.149c-.248-.1-.5-.2-.757-.283a.276.276,0,0,0-.218.07c-.127.114-.23.254-.352.374A.991.991,0,0,1,53.7,47.1a1.447,1.447,0,0,1,.3-1.41,1.1,1.1,0,0,1,1.3-.234.5.5,0,0,0,.362.006c.335-.17.653-.373,1.039-.6l-.712-.731c.008-.019.016-.038.025-.057.175.04.353.07.524.122.241.074.471.191.715.24.307.062.384.252.384.522q0,1.408,0,2.816v.332l1.008-.182c.893-.162,1.787-.32,2.679-.491a.261.261,0,0,0,.177-.166,5.966,5.966,0,0,0,.008-.647l-2.162.417c0-.279-.013-.541.008-.8a.286.286,0,0,1,.176-.2q.78-.157,1.567-.276c.148-.023.2-.074.2-.221-.008-.278,0-.556,0-.868l-1.989.356a5.957,5.957,0,0,1,.013-.777c.009-.066.17-.138.272-.161.648-.146,1.3-.28,2.009-.43,0-.387,0-.781,0-1.174,0-.246.072-.322.317-.292a1,1,0,0,1,.211.045c.515.179.587.181.586.739,0,1.282,0,2.563,0,3.845v.344c.52-.1,1.01-.18,1.5-.289.052-.012.1-.176.1-.27.008-.739,0-1.478,0-2.3.236.2.416.337.581.492.538.508,1.066,1.026,1.61,1.527a.443.443,0,0,0,.321.095c.436-.06.866-.16,1.3-.217.23-.03.285-.124.284-.349-.012-1.634-.01-3.267-.011-4.9,0-.053.008-.106.014-.182.245.059.484.1.711.181a.281.281,0,0,1,.138.213c.015.332.006.664.006,1.05l1.5-.271v3.691l1.689-.252V41.563c.412-.1.8-.214,1.2-.291.189-.036.227-.122.223-.291-.009-.422,0-.845,0-1.344.3.163.536.278.754.422.05.033.049.163.049.248,0,1.047.025,2.095-.007,3.141a1.243,1.243,0,0,0,1.234,1.268,13.266,13.266,0,0,0,1.794-.181,6.417,6.417,0,0,0,.947-.2,1.682,1.682,0,0,0,1.18-1.441,15.082,15.082,0,0,0,.15-3.206c-.006-.431,0-.862,0-1.321.41.18.832.353,1.239.557.067.034.1.2.1.3,0,1.39-.012,2.779-.02,4.169,0,.1,0,.194,0,.342.67-.111,1.308-.211,1.941-.331.054-.01.116-.145.119-.224.012-.4.006-.809.006-1.272.344.166.649.31.951.461.33.165.654.343.987.5a.555.555,0,0,0,.307.066c.742-.124,1.482-.262,2.3-.41L85.792,41.1a2.056,2.056,0,0,0,1.018-1.853c-.1-.84-.765-1.209-1.525-1.571.14-.043.216-.095.278-.081a15.61,15.61,0,0,1,1.8.45,3.254,3.254,0,0,1,.946.642,13.421,13.421,0,0,1,1.043,1.023.652.652,0,0,1,.157.4c.016.684.007,1.368.007,2.107.675-.126,1.317-.24,1.956-.373.053-.011.111-.149.112-.228.009-.614,0-1.228.008-1.841a.628.628,0,0,1,.071-.307c.807-1.321,1.624-2.637,2.431-3.959a.314.314,0,0,1,.439-.165c1.086.4,2.172.8,3.268,1.178a.738.738,0,0,1,.568.6c.446,1.906.921,3.8,1.391,5.7.123.5.259.99.388,1.485.069.264.006.346-.257.262-.461-.147-.913-.322-1.364-.5-1.146-.447-2.3-.881-3.432-1.36a3.119,3.119,0,0,0-1.9-.142q-2.207.442-4.419.857c-2.05.382-4.1.753-6.154,1.126-2.132.387-4.264.768-6.4,1.156s-4.261.786-6.392,1.174c-2.025.369-4.051.73-6.076,1.1q-3.355.612-6.709,1.232c-1.609.294-3.218.588-4.829.871-.174.03-.229.1-.238.258q-.018.311-.055.618a.256.256,0,0,0,.21.321c.734.157.9.633.89,1.334-.024,1.956.021,3.912.04,5.868A1.409,1.409,0,0,0,53.085,58.683ZM85.1,34.428l1.447-.277c0-1.085.011-2.14-.007-3.194,0-.3.075-.434.379-.484.378-.062.747-.178,1.114-.27V28.7l-1.5.287V27.549c-.4.082-.764.158-1.132.232-.227.046-.313.164-.311.412.011,1.985.006,3.969.006,5.954ZM44.551,55.03a1.276,1.276,0,0,0-.123,1,2.054,2.054,0,0,0,1.491,1.417,1.967,1.967,0,0,0,2-.838,1.864,1.864,0,0,0,.2-.732c.01-.058-.107-.189-.182-.2C46.815,55.452,45.686,55.243,44.551,55.03ZM101.126,53.7a1.8,1.8,0,0,0,2.325,1.485,1.749,1.749,0,0,0,1.268-2.052Z" style="fill:#b1b1b1"/><path d="M112.842,66.118V72H36.7V70.185l16.822-2.429c-.492-.223-.924-.4-1.337-.61a3.986,3.986,0,0,1-1.758-1.511,3.038,3.038,0,0,1,.444-3.468,4.481,4.481,0,0,1,3.119-1.519c.575-.048,1.15-.143,1.724-.138.647.006,1.293.1,1.938.16,1.022.1,2.044.2,3.066.3l3.04.3q1.492.147,2.986.294,1.533.151,3.066.3l2.987.292,3.04.3q1.52.148,3.04.3c1,.1,2.008.2,3.013.3s2.009.2,3.013.294l3.014.3,3.04.3,2.986.3,3.013.3q1.533.153,3.067.3c1,.1,2.009.193,3.014.292s2.026.2,3.039.306q1.479.147,2.959.29l3.067.3C112.333,66.066,112.565,66.09,112.842,66.118Z" style="fill:#b1b1b1"/><path d="M101.821,63.846l-39.167-3.94c0-.029-.006-.058-.008-.087.218-.046.434-.112.655-.136.771-.082,1.543-.146,2.314-.224q1.385-.141,2.768-.293c1.056-.116,2.112-.239,3.168-.357s2.131-.239,3.2-.355,2.149-.232,3.224-.349l2.794-.3q1.383-.148,2.768-.293c1.147-.121,2.294-.238,3.441-.361,1.03-.111,2.059-.227,3.088-.342,1.252-.14,2.5-.282,3.757-.419a.614.614,0,0,1,.237.022q2.436.732,4.871,1.47c.9.273,1.8.551,2.707.817.143.042.214.088.213.249,0,1.588,0,3.177,0,4.765C101.84,63.744,101.831,63.778,101.821,63.846Z" style="fill:#b1b1b1"/><path d="M75.5,24.914a3.554,3.554,0,0,1,3.75,2.781,4.191,4.191,0,0,1-.635,3.3A6.06,6.06,0,0,1,74.39,33.87a3.74,3.74,0,0,1-4.079-1.787,3.585,3.585,0,0,1-.027-3.426,6.6,6.6,0,0,1,4.257-3.6A6.386,6.386,0,0,1,75.5,24.914Z" style="fill:#b1b1b1"/><path d="M70.368,50.409a5.382,5.382,0,0,1,2.506.553,1.494,1.494,0,0,1,.835.935,1.511,1.511,0,0,1-.515,1.484,5.666,5.666,0,0,1-3.524,1.631,6.715,6.715,0,0,1-2.335-.1A2.82,2.82,0,0,1,65.722,53.9a1.009,1.009,0,0,1-.152-.993,3.107,3.107,0,0,1,1.437-1.588A6.38,6.38,0,0,1,70.368,50.409Z" style="fill:#b1b1b1"/><path d="M96.181,28.465c-.862-.337-1.686-.665-2.515-.982a6.2,6.2,0,0,0-.92-.3,1.661,1.661,0,0,0-1.64.722c-.081.092-.16.186-.283.33V23.7c.375.154.738.3,1.1.451,1.144.479,2.287.961,3.433,1.437a.383.383,0,0,1,.272.289c.178.8.368,1.592.552,2.388A1.326,1.326,0,0,1,96.181,28.465Z" style="fill:#b1b1b1"/><path d="M76.474,39.007c.453.225.882.432,1.3.655a.283.283,0,0,1,.116.212c.007,1.01.015,2.02,0,3.029-.007.427-.3.637-.808.633a.571.571,0,0,1-.613-.606c-.016-1.271-.018-2.542-.025-3.813A.578.578,0,0,1,76.474,39.007Z" style="fill:#b1b1b1"/><path d="M80.812,46.164l5.582,1.181c-.173.162-.318.3-.466.436-.287.261-.587.509-.858.785a.321.321,0,0,1-.449.061c-.544-.317-1.088-.632-1.63-.953q-.975-.577-1.945-1.166a2.253,2.253,0,0,1-.288-.25C80.777,46.227,80.794,46.2,80.812,46.164Z" style="fill:#b1b1b1"/><path d="M63.792,41.324c.969.343,1.938.684,2.905,1.035a.259.259,0,0,1,.145.187c.011.666.007,1.332.007,2.086-1.113-1.065-2.157-2.095-3.15-3.175C63.729,41.412,63.76,41.368,63.792,41.324Z" style="fill:#b1b1b1"/><path d="M90.494,38.446c-.191-.184-.359-.331-.51-.493q-.572-.612-1.13-1.236a.574.574,0,0,1-.072-.183.506.506,0,0,1,.182-.043c.652.124,1.3.255,1.953.385.194.039.3.145.2.342C90.926,37.619,90.716,38.013,90.494,38.446Z" style="fill:#b1b1b1"/><path d="M83.359,40.359V39.078a1.229,1.229,0,0,1,.9,0,.532.532,0,0,1,.437.572.556.556,0,0,1-.426.561A7.287,7.287,0,0,1,83.359,40.359Z" style="fill:#b1b1b1"/></svg>